<?xml version="1.0" encoding="utf-8"?>
<!-- Generator: Adobe Illustrator 28.1.0, SVG Export Plug-In . SVG Version: 6.00 Build 0)  -->
<svg version="1.1" id="Logo" xmlns="http://www.w3.org/2000/svg" xmlns:xlink="http://www.w3.org/1999/xlink" x="0px" y="0px"
	 viewBox="0 0 409.9 228" style="enable-background:new 0 0 409.9 228;" xml:space="preserve">
<rect x="10.2" y="9.1" width="5" height="209.6"/>
<g>
	<path d="M61.2,120.2c-1.9-1.4-4.3-2-7.2-2c-1.2,0-2.4,0.1-3.5,0.4c-1.1,0.2-2.2,0.6-3.1,1.2c-0.9,0.6-1.6,1.3-2.1,2.2
		c-0.5,0.9-0.8,2.1-0.8,3.5c0,1.3,0.4,2.4,1.2,3.2c0.8,0.8,1.8,1.5,3.1,2c1.3,0.5,2.7,0.9,4.4,1.3c1.6,0.3,3.3,0.7,5,1.1
		c1.7,0.4,3.3,0.9,5,1.4c1.6,0.5,3.1,1.3,4.4,2.2c1.3,0.9,2.3,2.1,3.1,3.4c0.8,1.4,1.2,3.1,1.2,5.2c0,2.3-0.5,4.2-1.5,5.8
		c-1,1.6-2.3,2.9-3.9,3.9c-1.6,1-3.3,1.7-5.3,2.2c-2,0.5-3.9,0.7-5.8,0.7c-2.4,0-4.6-0.3-6.7-0.9c-2.1-0.6-4-1.5-5.6-2.7
		c-1.6-1.2-2.9-2.7-3.8-4.6c-0.9-1.9-1.4-4.1-1.4-6.7h5.3c0,1.8,0.3,3.3,1,4.6c0.7,1.3,1.6,2.3,2.7,3.2c1.1,0.8,2.4,1.4,3.9,1.8
		c1.5,0.4,3,0.6,4.6,0.6c1.3,0,2.5-0.1,3.8-0.4c1.3-0.2,2.4-0.6,3.5-1.2c1-0.6,1.9-1.4,2.5-2.3c0.6-1,0.9-2.3,0.9-3.8
		c0-1.5-0.4-2.6-1.2-3.6c-0.8-0.9-1.8-1.7-3.1-2.2c-1.3-0.6-2.7-1-4.4-1.4c-1.6-0.4-3.3-0.7-4.9-1.1c-1.7-0.4-3.3-0.8-5-1.3
		c-1.6-0.5-3.1-1.1-4.4-2c-1.3-0.8-2.3-1.9-3.1-3.1c-0.8-1.3-1.2-2.9-1.2-4.8c0-2.1,0.4-4,1.3-5.5c0.9-1.6,2-2.8,3.5-3.9
		c1.4-1,3.1-1.8,4.9-2.2c1.8-0.5,3.7-0.7,5.7-0.7c2.2,0,4.2,0.3,6,0.8c1.9,0.5,3.5,1.3,4.9,2.4c1.4,1.1,2.5,2.5,3.3,4.2
		c0.8,1.7,1.3,3.7,1.3,6h-5.3C64.2,123.8,63.1,121.6,61.2,120.2"/>
	<path d="M75.7,135.2c0.6-2,1.6-3.7,2.8-5.1c1.3-1.4,2.8-2.6,4.7-3.4c1.9-0.8,4-1.2,6.4-1.2c2.5,0,4.6,0.4,6.4,1.2
		c1.8,0.8,3.4,2,4.7,3.4c1.3,1.4,2.2,3.1,2.8,5.1c0.6,2,0.9,4.1,0.9,6.3s-0.3,4.3-0.9,6.3c-0.6,1.9-1.6,3.6-2.8,5.1
		c-1.3,1.4-2.8,2.6-4.7,3.4c-1.8,0.8-4,1.2-6.4,1.2c-2.4,0-4.5-0.4-6.4-1.2c-1.9-0.8-3.4-1.9-4.7-3.4c-1.3-1.4-2.2-3.1-2.8-5.1
		c-0.6-1.9-1-4-1-6.3S75,137.1,75.7,135.2 M80.8,146.4c0.5,1.4,1.2,2.6,2,3.6c0.9,1,1.9,1.7,3.1,2.2c1.2,0.5,2.4,0.8,3.7,0.8
		c1.3,0,2.5-0.3,3.7-0.8c1.2-0.5,2.2-1.3,3.1-2.2c0.9-1,1.5-2.2,2-3.6c0.5-1.4,0.7-3.1,0.7-5c0-1.9-0.2-3.5-0.7-5
		c-0.5-1.4-1.2-2.7-2-3.6c-0.9-1-1.9-1.7-3.1-2.3c-1.2-0.5-2.4-0.8-3.7-0.8c-1.3,0-2.5,0.3-3.7,0.8c-1.2,0.5-2.2,1.3-3.1,2.3
		c-0.9,1-1.6,2.2-2,3.6c-0.5,1.4-0.7,3.1-0.7,5C80,143.3,80.3,145,80.8,146.4"/>
	<path d="M127.6,131.5c-1.3-1.1-3-1.6-5.1-1.6c-1.8,0-3.3,0.3-4.6,1c-1.2,0.7-2.2,1.6-2.9,2.7c-0.7,1.1-1.3,2.4-1.6,3.8
		s-0.5,2.9-0.5,4.5c0,1.4,0.2,2.8,0.5,4.2c0.3,1.3,0.9,2.5,1.6,3.6c0.7,1,1.6,1.9,2.8,2.5c1.1,0.6,2.5,1,4.1,1c2.5,0,4.4-0.7,5.8-2
		c1.4-1.3,2.3-3.1,2.6-5.5h5.2c-0.6,3.8-2,6.7-4.2,8.8c-2.3,2.1-5.4,3.1-9.3,3.1c-2.3,0-4.4-0.4-6.2-1.1c-1.8-0.7-3.3-1.8-4.5-3.2
		c-1.2-1.4-2.1-3-2.7-4.9c-0.6-1.9-0.9-4-0.9-6.3c0-2.3,0.3-4.4,0.9-6.4c0.6-2,1.5-3.7,2.7-5.2c1.2-1.5,2.7-2.6,4.5-3.5
		c1.8-0.8,3.9-1.3,6.3-1.3c1.7,0,3.4,0.2,4.9,0.6c1.5,0.4,2.9,1.1,4,1.9c1.2,0.9,2.1,2,2.9,3.3c0.7,1.3,1.2,2.9,1.4,4.7h-5.2
		C129.7,134,128.9,132.5,127.6,131.5"/>
	<path d="M145.1,120.6h-5v-6.2h5V120.6z M140,126.1h5v30.7h-5V126.1z"/>
	<path d="M178.7,156.7c-0.9,0.5-2.1,0.8-3.6,0.8c-1.3,0-2.3-0.4-3.1-1.1c-0.8-0.7-1.2-1.9-1.2-3.6c-1.4,1.7-3,2.9-4.8,3.6
		c-1.8,0.7-3.8,1.1-6,1.1c-1.4,0-2.7-0.2-3.9-0.5c-1.2-0.3-2.3-0.8-3.2-1.5c-0.9-0.7-1.6-1.5-2.2-2.6c-0.5-1.1-0.8-2.4-0.8-3.9
		c0-1.7,0.3-3.2,0.9-4.3c0.6-1.1,1.4-2,2.3-2.7c1-0.7,2.1-1.2,3.3-1.6c1.2-0.4,2.5-0.7,3.8-0.9c1.4-0.3,2.7-0.5,3.9-0.6
		c1.2-0.1,2.3-0.3,3.3-0.6c1-0.3,1.7-0.6,2.3-1.1c0.6-0.5,0.8-1.2,0.8-2.2c0-1.1-0.2-2-0.6-2.7c-0.4-0.7-0.9-1.2-1.6-1.5
		c-0.7-0.4-1.4-0.6-2.2-0.7c-0.8-0.1-1.6-0.2-2.4-0.2c-2.1,0-3.9,0.4-5.3,1.2c-1.4,0.8-2.2,2.3-2.3,4.6h-5c0.1-1.9,0.5-3.5,1.2-4.8
		c0.7-1.3,1.7-2.4,2.8-3.2c1.2-0.8,2.5-1.4,4.1-1.7c1.5-0.4,3.2-0.5,4.9-0.5c1.4,0,2.8,0.1,4.1,0.3c1.4,0.2,2.6,0.6,3.7,1.2
		c1.1,0.6,2,1.5,2.7,2.6c0.7,1.1,1,2.5,1,4.3v15.7c0,1.2,0.1,2,0.2,2.6c0.1,0.6,0.6,0.8,1.4,0.8c0.4,0,1-0.1,1.5-0.2V156.7
		 M170.5,140.9c-0.6,0.5-1.5,0.8-2.5,1c-1,0.2-2.1,0.4-3.2,0.5c-1.1,0.1-2.3,0.3-3.4,0.5c-1.1,0.2-2.2,0.5-3.1,0.9
		c-0.9,0.4-1.7,1-2.2,1.7s-0.9,1.7-0.9,3c0,0.8,0.2,1.5,0.5,2.1c0.3,0.6,0.8,1,1.3,1.4c0.5,0.4,1.2,0.6,1.9,0.8
		c0.7,0.2,1.5,0.2,2.3,0.2c1.7,0,3.1-0.2,4.3-0.7c1.2-0.5,2.2-1,2.9-1.7c0.8-0.7,1.3-1.4,1.7-2.2c0.4-0.8,0.5-1.6,0.5-2.3V140.9z"/>
	<rect x="182.5" y="114.4" width="5" height="42.3"/>
	<polygon points="219.3,114.4 232.7,150 246.1,114.4 253.8,114.4 253.8,156.8 248.5,156.8 248.5,121.6 248.3,121.6 235.1,156.8 
		230.3,156.8 217.1,121.6 217,121.6 217,156.8 211.6,156.8 211.6,114.4 	"/>
	<path d="M260.2,135.2c0.6-2,1.6-3.7,2.8-5.1c1.3-1.4,2.8-2.6,4.7-3.4c1.9-0.8,4-1.2,6.4-1.2c2.5,0,4.6,0.4,6.4,1.2
		c1.8,0.8,3.4,2,4.7,3.4c1.3,1.4,2.2,3.1,2.8,5.1c0.6,2,1,4.1,1,6.3s-0.3,4.3-1,6.3c-0.6,1.9-1.6,3.6-2.8,5.1
		c-1.3,1.4-2.8,2.6-4.7,3.4c-1.8,0.8-4,1.2-6.4,1.2c-2.4,0-4.5-0.4-6.4-1.2c-1.9-0.8-3.4-1.9-4.7-3.4c-1.3-1.4-2.2-3.1-2.8-5.1
		c-0.6-1.9-0.9-4-0.9-6.3S259.6,137.1,260.2,135.2 M265.3,146.4c0.5,1.4,1.2,2.6,2,3.6c0.9,1,1.9,1.7,3.1,2.2
		c1.2,0.5,2.4,0.8,3.7,0.8c1.3,0,2.5-0.3,3.7-0.8c1.2-0.5,2.2-1.3,3.1-2.2c0.9-1,1.5-2.2,2-3.6c0.5-1.4,0.7-3.1,0.7-5
		c0-1.9-0.2-3.5-0.7-5c-0.5-1.4-1.2-2.7-2-3.6c-0.9-1-1.9-1.7-3.1-2.3c-1.2-0.5-2.4-0.8-3.7-0.8c-1.3,0-2.5,0.3-3.7,0.8
		c-1.2,0.5-2.2,1.3-3.1,2.3c-0.9,1-1.6,2.2-2,3.6c-0.5,1.4-0.7,3.1-0.7,5C264.6,143.3,264.8,145,265.3,146.4"/>
	<path d="M298.8,114.4v15.8h0.1c0.8-1.7,2.1-2.9,3.9-3.7c1.8-0.8,3.7-1.2,5.9-1.2c2.4,0,4.4,0.4,6.2,1.3c1.8,0.9,3.2,2,4.4,3.5
		c1.2,1.5,2,3.2,2.6,5.1c0.6,1.9,0.9,4,0.9,6.2c0,2.2-0.3,4.2-0.9,6.2c-0.6,1.9-1.4,3.6-2.6,5.1c-1.2,1.4-2.6,2.6-4.4,3.4
		c-1.8,0.8-3.8,1.2-6.1,1.2c-0.8,0-1.6-0.1-2.5-0.2c-0.9-0.2-1.8-0.4-2.8-0.8c-0.9-0.4-1.8-0.8-2.6-1.5c-0.8-0.6-1.5-1.4-2-2.3h-0.1
		v4.1h-5v-42.3H298.8 M316.9,137c-0.4-1.4-0.9-2.6-1.7-3.6c-0.8-1.1-1.8-1.9-3-2.5c-1.2-0.6-2.6-0.9-4.2-0.9c-1.7,0-3.1,0.3-4.3,1
		c-1.2,0.7-2.2,1.6-2.9,2.6c-0.8,1.1-1.3,2.3-1.6,3.7c-0.3,1.4-0.5,2.8-0.5,4.2c0,1.5,0.2,3,0.5,4.4c0.4,1.4,0.9,2.6,1.7,3.7
		c0.8,1.1,1.8,1.9,3,2.6c1.2,0.7,2.7,1,4.5,1c1.7,0,3.2-0.3,4.4-1c1.2-0.7,2.1-1.6,2.8-2.7c0.7-1.1,1.2-2.4,1.5-3.8
		c0.3-1.4,0.5-2.9,0.5-4.4C317.5,139.8,317.3,138.4,316.9,137"/>
	<path d="M332.7,120.6h-5v-6.2h5V120.6z M327.7,126.1h5v30.7h-5V126.1z"/>
	<rect x="339.2" y="114.4" width="5" height="42.3"/>
	<path d="M355.7,120.6h-5v-6.2h5V120.6z M350.7,126.1h5v30.7h-5V126.1z"/>
	<path d="M375.3,126.1v4.4h-6.1v19c0,0.6,0.1,1.1,0.2,1.4c0.1,0.4,0.3,0.6,0.6,0.8c0.3,0.2,0.7,0.3,1.2,0.4c0.5,0.1,1.1,0.1,1.9,0.1
		h2.3v4.4h-3.9c-1.3,0-2.4-0.1-3.4-0.3c-0.9-0.2-1.7-0.5-2.3-1c-0.6-0.5-1-1.1-1.3-2c-0.3-0.9-0.4-2-0.4-3.4v-19.5h-5.2v-4.4h5.2
		v-9.2h5v9.2H375.3"/>
	<path d="M392.7,160.9c-0.6,1.5-1.2,2.8-1.7,3.8c-0.6,1-1.2,1.9-1.9,2.5c-0.7,0.7-1.5,1.1-2.3,1.4c-0.8,0.3-1.8,0.4-2.9,0.4
		c-0.6,0-1.2,0-1.8-0.1c-0.6-0.1-1.2-0.2-1.7-0.4v-4.6c0.4,0.2,0.9,0.4,1.5,0.5c0.6,0.1,1.1,0.2,1.5,0.2c1,0,1.9-0.2,2.6-0.7
		c0.7-0.5,1.2-1.2,1.6-2.1l2.1-5.2l-12.2-30.5h5.7l9,25.1h0.1l8.6-25.1h5.3L392.7,160.9"/>
	<path d="M65.6,182.7c-2.2-1.5-4.7-2.3-7.7-2.3c-2.5,0-4.7,0.5-6.5,1.4c-1.8,1-3.3,2.2-4.4,3.8c-1.2,1.6-2,3.4-2.6,5.5
		c-0.6,2.1-0.8,4.2-0.8,6.4c0,2.4,0.3,4.7,0.8,6.8c0.6,2.2,1.4,4,2.6,5.6c1.2,1.6,2.7,2.9,4.5,3.8c1.8,1,4,1.4,6.5,1.4
		c1.9,0,3.5-0.3,5-0.9c1.4-0.6,2.7-1.5,3.7-2.5c1-1.1,1.9-2.4,2.5-3.9c0.6-1.5,0.9-3.1,1.1-4.9h5.6c-0.6,5.3-2.4,9.5-5.5,12.5
		s-7.4,4.4-12.8,4.4c-3.3,0-6.1-0.6-8.6-1.7c-2.5-1.1-4.5-2.7-6.1-4.7c-1.6-2-2.8-4.3-3.6-7c-0.8-2.7-1.2-5.6-1.2-8.7
		c0-3.1,0.4-6,1.3-8.7c0.9-2.7,2.1-5.1,3.8-7.1c1.7-2,3.8-3.6,6.3-4.8c2.5-1.2,5.4-1.7,8.6-1.7c2.2,0,4.3,0.3,6.3,0.9
		c2,0.6,3.7,1.5,5.3,2.6c1.5,1.1,2.8,2.6,3.9,4.3c1,1.7,1.7,3.7,2,6h-5.6C69.1,186.5,67.8,184.2,65.6,182.7"/>
	<path d="M80,197.4c0.6-2,1.6-3.7,2.8-5.1c1.3-1.4,2.8-2.6,4.7-3.4c1.9-0.8,4-1.2,6.4-1.2c2.5,0,4.6,0.4,6.4,1.2
		c1.8,0.8,3.4,2,4.7,3.4c1.3,1.4,2.2,3.1,2.8,5.1c0.6,2,0.9,4.1,0.9,6.3c0,2.3-0.3,4.3-0.9,6.3c-0.6,1.9-1.6,3.6-2.8,5.1
		c-1.3,1.4-2.8,2.6-4.7,3.4c-1.8,0.8-4,1.2-6.4,1.2c-2.4,0-4.5-0.4-6.4-1.2c-1.9-0.8-3.4-1.9-4.7-3.4c-1.3-1.4-2.2-3.1-2.8-5.1
		c-0.6-1.9-1-4-1-6.3C79,201.5,79.3,199.4,80,197.4 M85.1,208.7c0.5,1.4,1.2,2.6,2,3.6c0.9,1,1.9,1.7,3.1,2.2
		c1.2,0.5,2.4,0.8,3.7,0.8c1.3,0,2.5-0.3,3.7-0.8c1.2-0.5,2.2-1.3,3.1-2.2c0.9-1,1.5-2.2,2-3.6c0.5-1.4,0.7-3.1,0.7-5
		c0-1.9-0.2-3.5-0.7-4.9c-0.5-1.4-1.2-2.7-2-3.6c-0.9-1-1.9-1.7-3.1-2.3c-1.2-0.5-2.4-0.8-3.7-0.8c-1.3,0-2.5,0.3-3.7,0.8
		c-1.2,0.5-2.2,1.3-3.1,2.3c-0.9,1-1.6,2.2-2,3.6c-0.5,1.4-0.7,3.1-0.7,4.9C84.4,205.6,84.6,207.3,85.1,208.7"/>
	<path d="M118.2,188.4v4.5h0.1c2.3-3.5,5.6-5.2,9.9-5.2c1.9,0,3.6,0.4,5.2,1.2c1.5,0.8,2.6,2.1,3.3,4c1-1.7,2.4-2.9,4.1-3.9
		c1.7-0.9,3.5-1.4,5.5-1.4c1.5,0,2.9,0.2,4.2,0.5c1.2,0.3,2.3,0.9,3.2,1.6c0.9,0.7,1.6,1.6,2.1,2.8c0.5,1.1,0.7,2.5,0.7,4.1v22.5h-5
		V199c0-1-0.1-1.8-0.2-2.7c-0.2-0.8-0.5-1.6-0.9-2.2c-0.4-0.6-1-1.1-1.8-1.5c-0.8-0.4-1.8-0.5-3-0.5c-2.5,0-4.4,0.7-5.9,2.1
		c-1.4,1.4-2.1,3.3-2.1,5.7v19.1h-5V199c0-1-0.1-1.9-0.3-2.7c-0.2-0.8-0.5-1.6-0.9-2.2c-0.4-0.6-1-1.1-1.7-1.4
		c-0.7-0.3-1.7-0.5-2.8-0.5c-1.5,0-2.7,0.3-3.8,0.9c-1,0.6-1.9,1.3-2.5,2.1c-0.7,0.8-1.1,1.7-1.4,2.6c-0.3,0.9-0.4,1.6-0.4,2.2v19.1
		h-5v-30.7H118.2"/>
	<path d="M167.4,188.4v4.5h0.1c2.3-3.5,5.6-5.2,9.9-5.2c1.9,0,3.6,0.4,5.2,1.2c1.5,0.8,2.6,2.1,3.3,4c1-1.7,2.4-2.9,4.1-3.9
		c1.7-0.9,3.5-1.4,5.5-1.4c1.5,0,2.9,0.2,4.2,0.5c1.2,0.3,2.3,0.9,3.2,1.6c0.9,0.7,1.6,1.6,2.1,2.8c0.5,1.1,0.7,2.5,0.7,4.1v22.5h-5
		V199c0-1-0.1-1.8-0.2-2.7c-0.2-0.8-0.5-1.6-0.9-2.2c-0.4-0.6-1-1.1-1.8-1.5c-0.8-0.4-1.8-0.5-3-0.5c-2.5,0-4.4,0.7-5.9,2.1
		c-1.4,1.4-2.1,3.3-2.1,5.7v19.1h-5V199c0-1-0.1-1.9-0.3-2.7c-0.2-0.8-0.5-1.6-0.9-2.2c-0.4-0.6-1-1.1-1.7-1.4
		c-0.7-0.3-1.7-0.5-2.8-0.5c-1.5,0-2.7,0.3-3.8,0.9c-1,0.6-1.9,1.3-2.5,2.1c-0.7,0.8-1.1,1.7-1.4,2.6c-0.3,0.9-0.4,1.6-0.4,2.2v19.1
		h-5v-30.7H167.4"/>
	<path d="M217,182.9h-5v-6.2h5V182.9z M212,188.4h5v30.7h-5V188.4z"/>
	<path d="M227.5,212.2c0.5,0.8,1.1,1.4,1.9,1.8c0.8,0.5,1.6,0.8,2.6,1c1,0.2,2,0.3,3,0.3c0.8,0,1.6-0.1,2.5-0.2
		c0.9-0.1,1.7-0.3,2.4-0.7c0.7-0.3,1.3-0.8,1.8-1.4c0.5-0.6,0.7-1.4,0.7-2.3c0-1.3-0.5-2.3-1.5-3c-1-0.7-2.2-1.2-3.7-1.6
		c-1.5-0.4-3.1-0.8-4.8-1.1c-1.7-0.3-3.4-0.8-4.8-1.4c-1.5-0.6-2.7-1.5-3.7-2.6c-1-1.1-1.5-2.6-1.5-4.6c0-1.5,0.3-2.9,1-4
		c0.7-1.1,1.6-2,2.7-2.7c1.1-0.7,2.3-1.2,3.7-1.5c1.4-0.3,2.7-0.5,4.1-0.5c1.7,0,3.3,0.1,4.8,0.4c1.5,0.3,2.8,0.8,3.9,1.5
		c1.1,0.7,2,1.7,2.7,3c0.7,1.2,1.1,2.8,1.2,4.7h-5c-0.1-1-0.3-1.8-0.8-2.5c-0.4-0.7-1-1.2-1.7-1.6c-0.7-0.4-1.4-0.7-2.2-0.9
		c-0.8-0.2-1.6-0.3-2.5-0.3c-0.7,0-1.5,0.1-2.3,0.2c-0.8,0.1-1.5,0.3-2.1,0.6c-0.6,0.3-1.1,0.7-1.5,1.2c-0.4,0.5-0.6,1.1-0.6,1.9
		c0,0.9,0.3,1.6,0.9,2.2c0.6,0.6,1.4,1,2.3,1.4c1,0.4,2,0.7,3.2,1c1.2,0.3,2.4,0.5,3.6,0.8c1.3,0.3,2.5,0.6,3.7,1
		c1.2,0.4,2.3,0.9,3.2,1.6c0.9,0.7,1.7,1.5,2.3,2.5c0.6,1,0.9,2.2,0.9,3.7c0,1.9-0.4,3.4-1.2,4.6c-0.8,1.2-1.8,2.2-3,3
		c-1.2,0.7-2.6,1.3-4.2,1.6c-1.6,0.3-3.1,0.4-4.7,0.4c-1.7,0-3.3-0.2-4.9-0.5c-1.5-0.4-2.9-0.9-4.1-1.8c-1.2-0.8-2.1-1.9-2.8-3.2
		c-0.7-1.3-1.1-2.9-1.2-4.8h5C226.8,210.5,227,211.4,227.5,212.2"/>
	<path d="M256.3,212.2c0.5,0.8,1.1,1.4,1.9,1.8c0.8,0.5,1.6,0.8,2.6,1c1,0.2,2,0.3,3,0.3c0.8,0,1.6-0.1,2.5-0.2
		c0.9-0.1,1.7-0.3,2.4-0.7c0.7-0.3,1.3-0.8,1.8-1.4c0.5-0.6,0.7-1.4,0.7-2.3c0-1.3-0.5-2.3-1.5-3c-1-0.7-2.2-1.2-3.7-1.6
		c-1.5-0.4-3.1-0.8-4.8-1.1c-1.7-0.3-3.3-0.8-4.8-1.4c-1.5-0.6-2.7-1.5-3.7-2.6c-1-1.1-1.5-2.6-1.5-4.6c0-1.5,0.3-2.9,1-4
		c0.7-1.1,1.6-2,2.7-2.7c1.1-0.7,2.3-1.2,3.7-1.5c1.4-0.3,2.7-0.5,4.1-0.5c1.7,0,3.3,0.1,4.8,0.4c1.5,0.3,2.8,0.8,3.9,1.5
		c1.1,0.7,2,1.7,2.7,3c0.7,1.2,1.1,2.8,1.2,4.7h-5c-0.1-1-0.3-1.8-0.8-2.5c-0.4-0.7-1-1.2-1.7-1.6c-0.7-0.4-1.4-0.7-2.2-0.9
		c-0.8-0.2-1.6-0.3-2.5-0.3c-0.8,0-1.5,0.1-2.3,0.2c-0.8,0.1-1.5,0.3-2.1,0.6c-0.6,0.3-1.1,0.7-1.5,1.2c-0.4,0.5-0.6,1.1-0.6,1.9
		c0,0.9,0.3,1.6,0.9,2.2c0.6,0.6,1.4,1,2.3,1.4c0.9,0.4,2,0.7,3.2,1c1.2,0.3,2.4,0.5,3.6,0.8c1.3,0.3,2.5,0.6,3.7,1
		c1.2,0.4,2.3,0.9,3.2,1.6c0.9,0.7,1.7,1.5,2.3,2.5c0.6,1,0.9,2.2,0.9,3.7c0,1.9-0.4,3.4-1.2,4.6c-0.8,1.2-1.8,2.2-3,3
		s-2.6,1.3-4.2,1.6c-1.6,0.3-3.1,0.4-4.7,0.4c-1.7,0-3.3-0.2-4.9-0.5c-1.5-0.4-2.9-0.9-4.1-1.8c-1.2-0.8-2.1-1.9-2.8-3.2
		c-0.7-1.3-1.1-2.9-1.2-4.8h5C255.5,210.5,255.8,211.4,256.3,212.2"/>
	<path d="M286.1,182.9h-5v-6.2h5V182.9z M281.1,188.4h5v30.7h-5V188.4z"/>
	<path d="M291.9,197.4c0.6-2,1.6-3.7,2.8-5.1c1.3-1.4,2.8-2.6,4.7-3.4c1.9-0.8,4-1.2,6.4-1.2c2.5,0,4.6,0.4,6.4,1.2
		c1.8,0.8,3.4,2,4.7,3.4c1.3,1.4,2.2,3.1,2.8,5.1c0.6,2,1,4.1,1,6.3c0,2.3-0.3,4.3-1,6.3c-0.6,1.9-1.6,3.6-2.8,5.1
		c-1.3,1.4-2.8,2.6-4.7,3.4c-1.8,0.8-4,1.2-6.4,1.2c-2.4,0-4.5-0.4-6.4-1.2c-1.9-0.8-3.4-1.9-4.7-3.4c-1.3-1.4-2.2-3.1-2.8-5.1
		c-0.6-1.9-0.9-4-0.9-6.3C290.9,201.5,291.3,199.4,291.9,197.4 M297,208.7c0.5,1.4,1.2,2.6,2,3.6c0.9,1,1.9,1.7,3.1,2.2
		c1.2,0.5,2.4,0.8,3.7,0.8c1.3,0,2.5-0.3,3.7-0.8c1.2-0.5,2.2-1.3,3.1-2.2c0.9-1,1.5-2.2,2-3.6c0.5-1.4,0.7-3.1,0.7-5
		c0-1.9-0.2-3.5-0.7-4.9c-0.5-1.4-1.2-2.7-2-3.6c-0.9-1-1.9-1.7-3.1-2.3c-1.2-0.5-2.4-0.8-3.7-0.8c-1.3,0-2.5,0.3-3.7,0.8
		c-1.2,0.5-2.2,1.3-3.1,2.3c-0.9,1-1.6,2.2-2,3.6c-0.5,1.4-0.7,3.1-0.7,4.9C296.3,205.6,296.5,207.3,297,208.7"/>
	<path d="M330.1,188.4v4.9h0.1c2.1-3.7,5.4-5.6,10-5.6c2,0,3.7,0.3,5,0.8c1.3,0.6,2.4,1.3,3.3,2.3c0.8,1,1.4,2.2,1.7,3.5
		c0.3,1.4,0.5,2.9,0.5,4.5v20.2h-5v-20.8c0-1.9-0.6-3.4-1.7-4.5c-1.1-1.1-2.6-1.7-4.6-1.7c-1.5,0-2.9,0.2-4,0.7
		c-1.1,0.5-2.1,1.2-2.8,2c-0.7,0.9-1.3,1.9-1.7,3.1c-0.4,1.2-0.6,2.4-0.6,3.8v17.3h-5v-30.7H330.1"/>
</g>
<g>
	<path d="M79.6,23c-0.5,0.9-0.9,1.5-0.8,2.2c0.1,0.7,0.8,1.2,1.2,1.9c0.3-0.8,0.9-1.5,0.8-2.1C80.7,24.3,79.8,23.4,79.6,23"/>
	<path d="M92.1,23c0.5,0.9,0.9,1.5,0.8,2.2c-0.1,0.7-0.8,1.2-1.2,1.9c-0.3-0.8-0.9-1.5-0.8-2.1C91,24.3,91.9,23.4,92.1,23"/>
	<path d="M72.5,22.4c0.5,0,0.8-0.4,0.8-0.8c0-0.5-0.4-0.8-0.8-0.8c-0.5,0-0.8,0.4-0.8,0.8C71.7,22,72,22.4,72.5,22.4"/>
	<path d="M73.1,23.6c0-0.5-0.4-0.8-0.8-0.8c-0.5,0-0.8,0.4-0.8,0.8c0,0.5,0.4,0.8,0.8,0.8C72.7,24.5,73.1,24.1,73.1,23.6"/>
	<path d="M73.5,25.7c0-0.5-0.4-0.8-0.8-0.8s-0.8,0.4-0.8,0.8c0,0.5,0.4,0.8,0.8,0.8S73.5,26.1,73.5,25.7"/>
	<path d="M77.1,18.4c0.5,0,0.8-0.4,0.8-0.8c0-0.5-0.4-0.8-0.8-0.8c-0.5,0-0.8,0.4-0.8,0.8C76.3,18,76.7,18.4,77.1,18.4"/>
	<path d="M75.1,19.1c0.5,0,0.8-0.4,0.8-0.8c0-0.5-0.4-0.8-0.8-0.8c-0.5,0-0.8,0.4-0.8,0.8C74.2,18.7,74.6,19.1,75.1,19.1"/>
	<path d="M73.4,20.5c0.5,0,0.8-0.4,0.8-0.8c0-0.5-0.4-0.8-0.8-0.8c-0.5,0-0.8,0.4-0.8,0.8C72.6,20.1,72.9,20.5,73.4,20.5"/>
	<path d="M79.3,18.6c0.5,0,0.8-0.4,0.8-0.8c0-0.5-0.4-0.8-0.8-0.8c-0.5,0-0.8,0.4-0.8,0.8C78.5,18.2,78.9,18.6,79.3,18.6"/>
	<path d="M81.4,19.2c0.5,0,0.8-0.4,0.8-0.8c0-0.5-0.4-0.8-0.8-0.8c-0.5,0-0.8,0.4-0.8,0.8C80.6,18.8,80.9,19.2,81.4,19.2"/>
	<path d="M83.4,20.1c0.5,0,0.8-0.4,0.8-0.8c0-0.5-0.4-0.8-0.8-0.8c-0.5,0-0.8,0.4-0.8,0.8C82.5,19.8,82.9,20.1,83.4,20.1"/>
	<path d="M98.3,21.6c0,0.5,0.4,0.8,0.8,0.8c0.5,0,0.8-0.4,0.8-0.8c0-0.5-0.4-0.8-0.8-0.8C98.7,20.7,98.3,21.1,98.3,21.6"/>
	<path d="M99.5,22.8c-0.5,0-0.8,0.4-0.8,0.8c0,0.5,0.4,0.8,0.8,0.8c0.5,0,0.8-0.4,0.8-0.8C100.3,23.2,99.9,22.8,99.5,22.8"/>
	<path d="M99.1,24.8c-0.5,0-0.8,0.4-0.8,0.8c0,0.5,0.4,0.8,0.8,0.8c0.5,0,0.8-0.4,0.8-0.8C99.9,25.2,99.5,24.8,99.1,24.8"/>
	<path d="M94.5,18.4c0.5,0,0.8-0.4,0.8-0.8c0-0.5-0.4-0.8-0.8-0.8c-0.5,0-0.8,0.4-0.8,0.8C93.7,18,94.1,18.4,94.5,18.4"/>
	<path d="M96.6,19.1c0.5,0,0.8-0.4,0.8-0.8c0-0.5-0.4-0.8-0.8-0.8c-0.5,0-0.8,0.4-0.8,0.8C95.8,18.7,96.2,19.1,96.6,19.1"/>
	<path d="M98.3,20.5c0.5,0,0.8-0.4,0.8-0.8c0-0.5-0.4-0.8-0.8-0.8c-0.5,0-0.8,0.4-0.8,0.8C97.4,20.1,97.8,20.5,98.3,20.5"/>
	<path d="M92.4,18.6c0.5,0,0.8-0.4,0.8-0.8c0-0.5-0.4-0.8-0.8-0.8c-0.5,0-0.8,0.4-0.8,0.8C91.5,18.2,91.9,18.6,92.4,18.6"/>
	<path d="M90.3,19.2c0.5,0,0.8-0.4,0.8-0.8c0-0.5-0.4-0.8-0.8-0.8c-0.5,0-0.8,0.4-0.8,0.8C89.4,18.8,89.8,19.2,90.3,19.2"/>
	<path d="M87.5,19.3c0,0.5,0.4,0.8,0.8,0.8c0.5,0,0.8-0.4,0.8-0.8c0-0.5-0.4-0.8-0.8-0.8C87.8,18.5,87.5,18.8,87.5,19.3"/>
	<path d="M84.4,23.8h0.9v-3.6c-0.3-0.1-0.6-0.2-0.9-0.3V23.8"/>
	<path d="M87.3,20c-0.3,0.1-0.6,0.2-0.9,0.3v3.6h0.9V20"/>
	<path d="M85.3,16v-2.1c-1.1,0.2-1.9,1.1-2.1,2.1H85.3"/>
	<path d="M86.4,16h2c-0.2-1.1-1-1.9-2-2.1V16"/>
	<path d="M83.3,17c0.3,1.2,1.3,2.1,2.6,2.1c1.3,0,2.3-0.9,2.6-2.1H83.3"/>
	<g>
		<path d="M87.3,13.5c-0.6-0.5-1.1-1.1-1.1-1.9c0.7,0.1,1.5,0.6,1.9,1.2V10c-0.5,0.6-1.2,1.1-1.9,1.2c0.1-0.7,0.5-1.3,1.1-2.1h-2.8
			c0.6,0.7,1,1.4,1.1,2.1c-0.7-0.1-1.5-0.6-1.9-1.2v2.9c0.5-0.6,1.2-1.1,1.9-1.2c-0.1,0.7-0.5,1.4-1.1,1.9H87.3"/>
	</g>
	<path d="M87.4,73.8c-0.6,0-1-0.5-1-1c0-0.6,0.5-1,1-1c0.6,0,1,0.5,1,1C88.4,73.3,87.9,73.8,87.4,73.8 M82.4,72.2
		c-0.6,0-1.1-0.5-1.1-1.1c0-0.6,0.5-1.1,1.1-1.1c0.6,0,1.1,0.5,1.1,1.1C83.5,71.7,83,72.2,82.4,72.2 M80.7,67.2L80.4,67
		c-0.5-0.4-0.9-0.4-1.4,0c-0.2,0.2-0.4,0.4-0.6,0.6L78.1,68l0.2,0.2c0.5,0.4,0.6,0.9,0.5,1.2c-0.1,0.1-0.2,0.2-0.3,0.2
		c-0.3,0.1-0.6,0-1-0.3l-0.2-0.1l-0.1,0.2c0,0.1-0.1,0.1-0.1,0.1c0,0.1-0.1,0.1-0.1,0.2c-0.2,0.4-0.3,0.7-0.3,1c0,0.1,0,0.1,0,0.2
		c0.1,0.3,0.3,0.4,0.5,0.5l0.1,0.1c0.2,0.2,0.6,0.4,0.8,0.5c-0.5,0.3-1,0.3-1.4,0.1c-0.7-0.4-1.2-1.2-1.2-1.6c0-0.6,0.3-1.4,0.8-2.2
		l0.1-0.1L76.3,68c-0.2-0.3-0.3-0.5-0.4-0.7c0.3,0,0.5,0.1,0.8,0.2l0.1,0l0.1-0.1c0.3-0.3,1.4-1.5,2.5-1.5c0.5,0,0.9,0.2,1.3,0.6
		c0.3,0.3,0.4,0.7,0.5,1C81,67.5,80.9,67.3,80.7,67.2 M90.4,71.2c-2.6-0.7-5.8-1.8-8.7-3.1l0,0c0.1-0.6-0.1-1.3-0.6-1.8
		c-0.4-0.5-1.1-0.8-1.7-0.8c-0.3,0-0.5,0.1-0.8,0.2c-0.4-0.4-0.8-0.8-1.2-1.2c-1.1-1.3-2-2.8-2.6-4.5c-0.3-1-0.6-2-0.8-3
		c-0.1,0.9-1.1,2-2.8,2c0-0.2,0-0.6-0.1-0.7c-0.4,0.5-1.1,1-2.6,0.5c0.2,1.2,0.6,2.3,1,3.4c0.9,2.4,2.2,4.5,3.8,6.4
		c0.5,0.6,1.1,1.2,1.7,1.7c0,0.1,0,0.2,0,0.3c0,0.6,0.6,1.6,1.5,2c0.7,0.3,1.5,0.3,2.2-0.2c1.3,0.7,2.9,1.3,4.7,1.8
		c2,0.5,3.9,0.9,5.4,0.9c1.3,0,3-0.6,4.7-1.7c0.7-0.4,1.3-0.9,1.8-1.3c0.1-0.1,0.1-0.1,0.2-0.2C94,72,92,71.6,90.4,71.2"/>
	<path d="M89.6,81.9c-0.2-0.4-0.5-0.6-0.7-0.6c-1.1,0-0.7,2.8-1.9,2.8c-0.6,0-0.9-0.4-0.9-0.8c0-0.4,0.3-0.5,0.3-0.8
		c0-0.3-0.3-0.4-0.5-0.4c-0.3,0-0.5,0.1-0.5,0.4c0,0.3,0.3,0.4,0.3,0.8c0,0.4-0.3,0.8-0.9,0.8c-1.3,0-0.9-2.8-1.9-2.8
		c-0.2,0-0.5,0.2-0.7,0.6c-0.2-0.4-0.3-0.8-0.3-1.1c0-0.5,0.4-1.2,1.2-1.2c1.4,0,1.1,2,1.8,2c0.3,0,0.5-0.2,0.5-0.5
		c0-0.6-1-1.1-1-1.9c0-0.8,0.7-1.5,1.5-2.1c0.8,0.6,1.5,1.3,1.5,2.1c0,0.8-1,1.3-1,1.9c0,0.3,0.2,0.5,0.5,0.5c0.7,0,0.4-2,1.8-2
		c0.8,0,1.2,0.7,1.2,1.2C90,81.1,89.9,81.5,89.6,81.9 M85.9,85.9c-0.4,0-0.7-0.3-0.7-0.7c0-0.4,0.3-0.7,0.7-0.7
		c0.4,0,0.7,0.3,0.7,0.7C86.6,85.6,86.3,85.9,85.9,85.9 M88.7,79c-0.2,0-0.4,0-0.5,0.1v-3.2c-1.4,0-3-0.3-4.6-0.7v3.9
		C83.4,79,83.2,79,83,79c-1.1,0-1.8,0.9-1.8,1.8c0,0.8,0.5,1.6,0.9,2c0.2-0.5,0.4-0.9,0.7-0.9c0.5,0,0.3,2.7,1.9,2.8
		c-0.1,0.1-0.1,0.3-0.1,0.4c0,0.7,0.6,1.3,1.3,1.3s1.3-0.6,1.3-1.3c0-0.2,0-0.3-0.1-0.4c1.6-0.1,1.3-2.8,1.9-2.8
		c0.3,0,0.4,0.4,0.7,0.9c0.4-0.5,0.9-1.2,0.9-2C90.5,79.9,89.8,79,88.7,79"/>
	<path d="M125.9,82.8c-0.1-0.2-0.2-0.3-0.4-0.2c-3.7,1.1-8.3-2-12.7-5c-3.7-2.5-7.3-4.8-10.3-4.8c-1.1,0-2.1,0.2-3,0.7
		c-1.1,0.6-1.8,1.5-2.4,2.7c-0.5,1.2-1,2.1-1.5,2.8c-0.5,0.8-0.9,1.4-0.9,2.1c0,0.6,0.3,1.1,0.8,1.7c0.4,0.4,1,0.9,1.9,1.3
		c0.2,0.1,0.4,0.2,0.6,0.3c0.7,0.4,1.2,0.6,1.3,1c-1.5,0.6-3.4,1.2-5.5,1.6c-2.4,0.4-5.1,0.6-7.9,0.6c-2.8,0-5.5-0.2-7.9-0.6
		c-2.2-0.4-4.1-0.9-5.5-1.6c0.1-0.6,0.5-0.9,1.3-1.2c0.2-0.1,0.4-0.2,0.6-0.3c0.7-0.4,1.4-0.8,1.9-1.2c0.5-0.5,0.8-1,0.8-1.6
		c0-0.7-0.4-1.3-0.9-2.1c-0.4-0.7-1-1.5-1.5-2.8c-0.5-1.2-1.3-2.1-2.4-2.7c-0.9-0.5-1.9-0.7-3-0.7c-3,0-6.6,2.3-10.3,4.8
		c-4.4,3-9,6-12.7,4.9c-0.2,0-0.3,0-0.4,0.2c-0.1,0.2,0,0.4,0.2,0.4c1.1,0.5,2.1,1.3,3.1,2c1.3,1,2.6,2,4,2c1.3,0,2.7-0.4,4.4-1.3
		c1.5-0.8,3-1.8,4.5-2.9c2.9-2,5.9-4.1,8.8-4.3c-0.3,0.3-0.6,0.6-0.9,0.8c-0.8,0.8-1.6,1.4-1.6,2.7c0,1,0.4,1.8,0.9,2.8
		c0.1,0.3,0.3,0.6,0.5,1c0.3,0.7,0.5,1.3,0.6,2.1c0.1,0.3,0.2,0.7,0.3,1.2c0.2,0.7,0.5,2,2.6,3c2.4,1.2,6.6,1.9,12.5,1.9
		s10.1-0.6,12.5-1.9c2.1-1.1,2.4-2.3,2.6-3c0.1-0.4,0.2-0.8,0.3-1.2c0.2-0.8,0.3-1.4,0.6-2.1c0.2-0.5,0.5-0.9,0.7-1.3
		c0.4-0.8,0.8-1.5,0.8-2.4c0-1.3-0.8-2-1.7-2.8c-0.3-0.3-0.6-0.5-0.9-0.8c2.9,0.2,5.9,2.3,8.8,4.3c1.5,1,3,2.1,4.5,2.9
		c1.7,0.9,3.1,1.3,4.4,1.3c1.4,0,2.6-1,4-2c1-0.7,2-1.5,3.1-2C125.8,83.1,125.9,83,125.9,82.8"/>
	<path d="M86.4,54V40.2c1.4,0.1,2.9,0.4,4.2,1.1c1.4,0.7,2.7,1.7,3.8,3c1.1,1.3,2,2.8,2.6,4.5c0.6,1.7,0.9,3.5,0.9,5.3H86.4
		 M85.9,34.4c-3.9,0-6.7,1.2-8.2,2.2c-0.9-0.5-1.3-1.1-1.3-1.7c0-2.2,6.3-2.4,9.5-2.4h0c3.2,0,9.5,0.2,9.5,2.4
		c0,0.6-0.4,1.2-1.3,1.7C92.5,35.5,89.8,34.4,85.9,34.4 M85.7,54H73.8c0-1.8,0.3-3.6,0.9-5.3c0.6-1.7,1.5-3.2,2.6-4.5
		c1.1-1.3,2.4-2.3,3.8-3c1.4-0.7,2.9-1.1,4.5-1.1V54z M103.6,53.2c-0.4-0.3-1.1-0.9-1.4-1.7c-0.4-0.9-2.3-4.5-2.6-5
		c-0.2-0.4-0.4-0.8-0.4-1.1c0-0.4,0.2-0.7,0.4-1c0.1-0.2,0.5-0.6,0.7-0.8c0.1-0.2,0.2-0.3,0.3-0.4c-0.7-1.2-1.4-2-2.2-3
		c-1.1-1.2-2.3-2.3-3.6-3.1c0.7-0.5,1.4-1.1,1.4-2.2c0-0.6-0.3-1.2-0.7-1.6c0.7-2.4,2.1-5.2,3.2-6.5l-2.4-1c0.6,0.9,0.7,2,0.5,2.7
		c-0.6-0.4-1.1-1-1.3-1.8c-0.1,0.7-0.5,1.9-0.9,2.6c0.7-0.3,1.2-0.5,1.9-0.2c-0.4,0.5-1.4,1.4-3,1c-0.8-0.2-1.7-0.7-1.7-1.3
		c0-0.4,0.3-0.9,0.8-0.8c0.5,0.1,0.5,0.8,0.4,1.2c0.7-0.4,1.4-2.4,0.3-2.7c-0.8-0.2-1.6,0.9-1.9,1.8c-0.2-1.1-0.6-2.1-1.4-2
		c-1.1,0.1-0.7,2.1-0.4,2.6c0.1-0.7,0.5-1.1,0.8-1.1c0.3,0,0.7,0.2,0.6,0.9c-0.1,0.6-1,1-2,1c-1,0-2.8-0.3-2.9-2.2
		c0.7,0.1,1.7,0.6,2.1,1.3c-0.1-1.2-0.1-2,0-3.2c-0.5,0.8-1.5,1.2-2.1,1.3c0.2-0.8,0.9-1.7,1.7-2.2h-4.3c0.8,0.5,1.5,1.4,1.7,2.2
		c-0.6-0.1-1.5-0.5-2-1.3c0.1,1.2,0.1,2.1,0,3.2c0.4-0.6,1.4-1.1,2.1-1.3c-0.2,1.9-1.9,2.2-2.9,2.2c-1.1,0-2-0.4-2-1
		c-0.1-0.6,0.3-0.8,0.6-0.9c0.3,0,0.7,0.4,0.8,1.1c0.4-0.5,0.7-2.5-0.4-2.6c-0.8-0.1-1.3,1-1.4,2c-0.3-0.9-1-2-1.9-1.8
		c-1.1,0.3-0.4,2.3,0.3,2.7c-0.2-0.4-0.1-1.1,0.4-1.2c0.5-0.1,0.8,0.4,0.8,0.8c0,0.7-0.8,1.1-1.7,1.3c-1.6,0.4-2.6-0.4-3-1
		c0.7-0.3,1.3-0.2,2,0.2c-0.4-0.7-0.8-1.9-0.9-2.6c-0.2,0.8-0.7,1.4-1.4,1.8c-0.1-0.6-0.1-1.8,0.5-2.7l-2.4,1
		c1.1,1.3,2.5,4.1,3.2,6.5c-0.5,0.4-0.7,0.9-0.7,1.6c0,1.1,0.7,1.8,1.4,2.2c-1.3,0.9-2.5,1.9-3.6,3.1c-1.6,1.8-2.9,4-3.8,6.3
		c0.3,0.3,1.8,1.9,2.1,2.3c0.6,0.7,0.9,1.5,1,2.1c0,1.1,0.3,1.5,0.8,2.2c0.2,0.2,0.4,1.1,0.5,1.6h11.8v12.9c-0.5,0-1,0.2-1.4,0.6
		c1.4,0.6,2.7,1,4,1.5c0.1-0.8,0.3-1.4,0.7-1.9c0,0-1.7-0.2-2.6-0.2V54.7h11.5c0,1.8-0.4,3.5-0.9,5.1c-0.6,1.7-1.5,3.2-2.6,4.5
		c-1.1,1.3-2.4,2.3-3.8,3c-0.2,0.1-0.2,0.3-0.5,0.4c-0.2,0.2-0.4,0.6-0.6,1c-0.1,0.4-0.2,0.7-0.3,1.2c0.5,0.2,0.8,0.3,1.4,0.4
		c4.1,1,5.1,0.7,5.3,0.5l0,0c0.9-0.7,1.8-1.5,2.5-2.4c1.6-1.8,2.9-4,3.8-6.4c0.9-2.5,1.4-5.1,1.4-7.8
		C103.6,53.8,103.6,53.6,103.6,53.2"/>
	<path d="M92.8,45.8c-0.1,0.1-0.1,0.2-0.1,0.3c0,0.1,0.1,0.2,0.3,0.2c-0.1,0.1-0.2,0.3-0.3,0.5c0.2,0,0.4,0,0.5-0.1
		c0,0.2,0,0.3,0.1,0.4c0.1,0.1,0.2,0.1,0.3,0c0.9,1.4,1.5,3,1.7,4.7c-0.1-0.1-0.3-0.1-0.4-0.1c0,0.2,0.1,0.4,0.2,0.5h-2.9
		c0-0.2-0.1-0.3-0.2-0.4c-0.1,0-0.3,0-0.4,0.1c0-0.2-0.1-0.3-0.2-0.5c-0.2,0.2-0.2,0.3-0.2,0.5c-0.1-0.2-0.3-0.2-0.4-0.1
		c-0.1,0-0.2,0.2-0.2,0.4h-2.5c0.1-0.1,0.2-0.3,0.2-0.5c-0.2,0-0.4,0.1-0.5,0.2v-4c0.2,0,0.4-0.1,0.4-0.2c0-0.1,0-0.3-0.1-0.4
		c0.2,0,0.3-0.1,0.5-0.2c-0.2-0.2-0.3-0.2-0.5-0.2c0.2-0.1,0.2-0.3,0.1-0.4c0-0.1-0.2-0.2-0.4-0.2v-3.4c0.1,0.1,0.2,0.2,0.4,0.2
		c0-0.2,0-0.4-0.1-0.5c0.8,0.2,1.5,0.6,2.2,1.1C91.4,44.3,92.1,45,92.8,45.8 M96.1,51.8c0.2,0.1,0.1,0.5-0.1,0.4
		c-0.3-2.1-1-4.1-2.2-5.9c0,0,0,0,0,0c0.2-0.1,0.4-0.3,0.5-0.6c-0.4,0-0.6,0.1-0.7,0.3c-0.1-0.1-0.2-0.2-0.3-0.3
		c-0.7-0.9-1.6-1.7-2.5-2.3c-0.9-0.6-1.8-1-2.8-1.3c0-0.2,0.3-0.3,0.4-0.1c0-0.4-0.3-0.5-0.5-0.5c-0.1,0-0.2,0.1-0.2,0.3
		c-0.1-0.1-0.3-0.2-0.5-0.3c0,0.2,0.1,0.4,0.2,0.6c-0.2,0-0.2,0.1-0.3,0.2c-0.1,0.2,0,0.5,0.4,0.5c-0.2-0.1-0.1-0.4,0.1-0.4v4.5
		c-0.2-0.1-0.5,0-0.8,0.2c0.2,0.2,0.5,0.3,0.8,0.2v4.9c-0.2,0-0.3-0.3-0.1-0.4c-0.4,0-0.5,0.3-0.4,0.5c0.1,0.1,0.2,0.2,0.4,0.2
		c-0.1,0.1-0.2,0.3-0.2,0.5c0.2,0,0.4-0.1,0.5-0.2c0,0.2,0.1,0.3,0.2,0.4c0.2,0.1,0.5-0.1,0.5-0.4c-0.1,0.2-0.4,0.1-0.4-0.1h3.4
		c-0.1,0.2,0,0.5,0.2,0.7c0.2-0.2,0.3-0.5,0.2-0.7h3.8c0,0.2-0.3,0.3-0.4,0.1c0,0.4,0.3,0.5,0.5,0.4c0.1-0.1,0.2-0.2,0.2-0.4
		c0.1,0.1,0.3,0.2,0.5,0.2c0-0.2-0.1-0.4-0.2-0.5c0.2,0,0.3-0.1,0.4-0.2C96.6,52.1,96.4,51.8,96.1,51.8"/>
	<path d="M94.1,50.5c0.1-0.1,0.3-0.2,0.3-0.3c-0.2,0.1-0.3,0-0.3,0c0.1-0.1,0.3,0,0.1-0.2c-0.1-0.2-0.2-0.2-0.4-0.1
		c-0.1,0.1-1.1,0-1.1-0.7c0.1,0.1,0.2,0.2,0.3,0.3c0,0,0.1,0,0.1,0.1c0,0,0.1,0,0.1,0c0.1,0,0.2,0,0.3,0c0,0,0,0,0,0v0
		c0.2,0,0.3-0.2,0.4-0.4c0-0.4-0.3-0.6-0.7-0.9c-0.2-0.1-0.3-0.2-0.4-0.3c-0.1-0.3,0-0.5-0.4-1c0-0.1,0-0.3-0.1-0.4
		c-0.2,0.3-0.3,0.9,0.2,1.5c0.4,0.4,1.2,0.8,1.2,1.2c0,0.1-0.1,0.2-0.2,0.2c0,0-0.1,0-0.1,0c0,0,0,0-0.1,0c-0.1,0-0.1,0-0.2-0.1
		c-0.1-0.1-0.2-0.1-0.3-0.2c-0.3-0.3-0.6-0.8-0.8-1c-0.4-0.5-0.2-1-0.2-1.4c0.3-0.4-0.2-1.1-0.4-1.3c0,0,0.1-0.2,0-0.4
		c-0.1,0-0.2,0-0.2,0c-0.1-0.1-0.1-0.2-0.2-0.2c-0.2,0-0.2-0.1-0.2-0.2c-0.1,0.1-0.1,0.2-0.2,0.2c-0.1,0-0.2,0-0.2,0
		c-0.1,0.1-0.1,0.1-0.3,0.1c-0.2,0-0.2,0.1-0.1,0.2c0,0.1,0,0.2,0.1,0.2c0,0,0,0,0,0l0.1,0.1l0.1-0.2c0.1-0.1,0.3-0.1,0.3,0.1
		c0,0.1,0,0.1-0.1,0.1c-0.1,0-0.2,0-0.3,0c-0.1,0-0.1,0.1-0.1,0.2c0,0.1,0.1,0.1,0.3,0.1c0.2,0,0.5-0.1,0.5,0.1
		c0,0.4-0.5,0.4-0.6,0.9c-0.1-0.1-0.2-0.2-0.3-0.3c-0.1-0.1-0.2-0.3-0.3-0.4c-0.1-0.1-0.2-0.2-0.4-0.3c-0.2-0.1-0.2-0.2-0.2-0.3
		c0-0.1,0.1-0.3,0.1-0.4c0,0,0-0.1,0-0.1c0-0.1-0.2-0.2-0.2-0.1c0,0,0.1,0.1,0.1,0.1c0,0-0.1,0.1-0.1,0.1c0,0,0,0.1,0,0.1
		c0,0,0,0,0,0c0,0,0,0,0,0.1c0,0,0,0,0,0c0-0.1-0.1-0.3-0.2-0.3c0,0,0,0-0.1,0c0,0,0,0,0,0c0-0.1-0.1-0.2-0.2-0.1c0,0,0.1,0,0.1,0
		c0,0,0,0.1,0,0.1c0,0.1,0.1,0.2,0.2,0.2c0,0,0,0,0,0c0,0,0,0,0,0c0,0,0,0,0,0c-0.2-0.1-0.3,0-0.3,0.1c0,0,0,0.1,0,0.1
		c-0.1,0-0.1,0.1,0,0.2c0,0,0-0.1,0-0.1c0,0,0,0,0,0c0,0,0,0,0.1,0c0,0,0,0,0.1,0c0,0,0,0,0,0c0,0,0,0,0.1,0c0,0,0,0,0,0
		c-0.1,0.1-0.1,0.2,0,0.3c-0.1,0.1-0.3,0.1-0.3-0.1c-0.2,0.3,0.1,0.4,0.3,0.3c0,0.1,0,0.3,0,0.3c0,0,0-0.1,0-0.1c0,0,0,0,0,0
		c0,0.1,0,0.1,0.1,0.1c0,0,0-0.1,0-0.1c0,0.1,0.1,0.1,0.1,0.2c0.1,0.2,0.3,0.7,0.8,0.9c-0.2,0.1-0.4,0.4-0.6,0.5
		c-0.1,0.1-0.3,0.3-0.5,0.2c-0.1,0-0.1-0.1-0.1-0.1c-0.1,0-0.1,0-0.2,0c0,0,0,0-0.1,0c-0.1,0-0.2,0-0.3,0.1c0.1,0,0.1,0,0.2,0
		c0,0,0,0.1,0,0.1c0,0.1,0,0.1,0.3,0.1c0,0,0,0,0,0c0,0-0.1,0.1-0.1,0c-0.1,0-0.2-0.1-0.3,0c0,0,0,0-0.1,0.1c0,0,0,0,0,0
		c-0.1,0-0.2,0.2-0.1,0.3c0,0,0-0.1,0.1-0.2c0,0,0,0.1,0.1,0.1c0.1,0.1,0.2,0.2,0.3-0.1c0,0,0,0,0,0c0,0.1-0.1,0.3,0,0.3
		c0,0,0,0,0.1,0c0,0,0,0,0,0c0,0.1,0.2,0.2,0.3,0.1c0,0-0.1-0.1-0.2-0.2c0,0,0.1,0,0.1,0c0.1-0.1,0-0.2,0-0.3c0,0,0,0,0,0
		c0,0.1,0.1,0.2,0.2,0.1c0.1,0,0.1-0.1,0.1-0.2c0.2-0.1,0.3-0.1,0.4-0.1c0-0.1,0.1-0.2,0.3-0.3c0.2-0.1,0.3,0,0.3,0.1
		c0-0.1,0.1-0.2,0.2-0.3c0,0.7,1,0.7,1.2,1.1C91.7,49,91.4,49,91.2,49c-0.2,0-0.6,0.3-0.7,0.5c0,0.2,0.2,0.6,0.4,0.8
		c-0.3,0.1-0.4,0-0.6,0c0,0,0,0,0,0c-0.2,0-0.3-0.4-0.5-0.3c0,0-0.1,0-0.1,0h0c-0.1,0-0.2,0.1-0.2,0.2c0,0,0.1-0.1,0.2-0.1
		c0,0,0,0.1,0,0.1c0,0,0,0.1,0.1,0.1c0.1,0,0.1,0,0.1,0c0,0,0,0,0,0c0,0.1-0.3-0.1-0.3,0.2c0,0,0,0.1,0.1,0.1c0,0.1,0.1,0.2,0.2,0.1
		c0,0-0.1-0.1-0.1-0.1c0,0,0.1,0,0.1,0c0,0,0,0,0,0c0,0,0,0,0,0c0,0,0,0,0,0c0,0,0,0,0,0.1c0,0,0,0.1,0,0.1c0,0.1,0.1,0.2,0.3,0.1
		c0,0-0.1,0-0.1-0.1c0,0,0.1,0,0.1,0c0,0,0-0.1,0-0.1c0,0,0,0,0,0c0,0,0,0,0.1,0c0,0,0,0,0,0c0,0.1,0.1,0.1,0.2,0.1
		c0.1,0,0.1,0,0.1-0.1c0,0,0.1,0,0.1,0.1c0-0.1,0-0.2,0.3,0l0.2-0.1c0,0,0.2,0.1,0.3,0c0.1-0.1,0.1-0.1,0.1-0.2
		c-0.1-0.2-0.1-0.2-0.2-0.4c-0.1-0.4,0.4-0.6,0.7-0.5c0.1,0.2,0.4,0.8,0.9,1c0.3,0.1,0.5-0.2,0.6-0.2c0,0,0,0,0.1,0.1
		c0,0.2,0,0.3,0,0.4c0,0.1-0.2,0-0.3,0c-0.1,0-0.1,0-0.1,0.1c-0.1,0-0.2,0.1-0.2,0.2c0,0,0.1-0.1,0.2-0.1c0,0,0,0,0,0
		c0,0.1,0.2,0.2,0.3,0.1c0,0,0.1,0,0,0c-0.1,0.1-0.2,0.2-0.1,0.2c0,0,0,0,0.1,0c0,0.1,0.1,0.2,0.1,0.2c0,0,0-0.1,0-0.2
		c0,0,0.1,0,0.1,0c0.1,0,0.1-0.2,0.1-0.2c0,0,0,0,0,0c0,0.1-0.1,0.2,0,0.3c0,0,0,0,0.1,0c0,0.1,0.1,0.1,0.3,0.1c0,0-0.1,0-0.1-0.1
		c0,0,0.1-0.1,0.1-0.1c0.1-0.2-0.1-0.2-0.1-0.3c0-0.1,0.2,0,0.2-0.2c0,0,0,0,0,0c0.1-0.1,0.2-0.1,0.2-0.2
		C94.2,50.6,94.1,50.6,94.1,50.5L94.1,50.5"/>
	<path d="M83.3,57l-0.2,0c-0.2,0-0.4,0.1-0.4,0.3c0,0.2,0.2,0.4,0.4,0.4l0.1,0c0,0.1,0,0.1,0,0.2c-0.1,0.3-0.1,0.9-0.2,1.6l-1.8-2.5
		c0.8-0.3,1.5-0.7,1.8-0.7C83.3,56.3,83.4,56.4,83.3,57 M82.6,61.4l-2.8-4c0.3-0.1,0.6-0.2,0.9-0.3l2.1,3
		C82.8,60.5,82.7,60.9,82.6,61.4 M82.3,63.2l-3.9-5.7c0.1,0,0.3,0,0.4,0c0.2,0,0.4,0,0.6,0l3.2,4.5C82.5,62.4,82.4,62.8,82.3,63.2
		 M77.9,57.5l4.3,6.2C79.9,62.8,77.6,60.8,77.9,57.5 M84.3,57l-0.2,0l0-0.2c0-0.7-0.4-1.2-1.1-1.2c-0.7,0-1.9,0.9-3.7,0.9
		c-0.8,0-1.7-0.4-2.2-0.7l-0.2,0.5c0,0,0,0,0-0.1c0-0.2-0.2-0.4-0.4-0.4c-0.2,0-0.4,0.2-0.4,0.4c0,0.2,0.2,0.4,0.4,0.4
		c0.1,0,0.3-0.1,0.3-0.2l-0.2,0.5c0.1,0,0.2,0.1,0.2,0.1c-0.3,2.7,1.7,6.2,5.3,7.2c0.5-0.1,1.1-0.1,1.1,0.5c0,0.4-0.2,0.5-0.5,0.5
		c-0.2,0-0.3-0.1-0.3-0.3c0-0.2,0.4-0.1,0.5-0.3c0.1-0.2-0.1-0.3-0.3-0.3c-0.2,0-0.6,0.2-0.6,0.6c0,0.5,0.4,0.8,0.8,0.8
		c0.4,0,1.2-0.2,1.1-1.2c0.2,0,0.4,0,0.5-0.2l0-0.6L84,64l0.1-6.2l0.1,0c0.2,0,0.4-0.1,0.4-0.3C84.7,57.2,84.5,57.1,84.3,57"/>
	<path d="M81.2,43.9C81.2,43.8,81.2,43.8,81.2,43.9c0.1-0.1,0.1-0.1,0.2-0.1c0-0.1,0-0.1-0.1-0.1c0.1,0,0.1,0,0-0.1c0,0-0.1,0-0.1,0
		c0,0,0,0,0-0.1c0,0,0,0,0.1,0l0.2,0.1c0,0,0,0,0,0.1c0,0,0,0.1,0,0.1c0,0,0-0.1-0.1-0.1c0,0,0,0,0,0.1c-0.1,0-0.1,0-0.1,0
		c0,0,0,0.1,0,0.1c0,0,0,0.1,0,0.1c0,0-0.1,0.1-0.2,0.1C81.1,44,81.1,43.9,81.2,43.9 M81.4,43.3c0,0.1-0.1,0.1-0.2,0.1
		c-0.1-0.1,0-0.1-0.1-0.2C81.3,43.2,81.4,43.3,81.4,43.3 M81.6,43.4c0,0,0.2,0.1,0.3,0.1c-0.1,0-0.1,0.1-0.2,0.1
		C81.6,43.6,81.6,43.5,81.6,43.4 M81,43.5C81,43.5,81,43.5,81,43.5C81,43.5,81,43.5,81,43.5 M83.6,44.5c0.8,0,1.3-0.3,1.3-0.5
		c0-0.9-2.3-0.4-2.3-0.9c0-0.1,0.1-0.2,0.2-0.3h0c1.2-0.1,1.2-0.9,2-1.1c-1-0.1-1.1,0.6-1.6,0.7c0.2-0.1,0.3-0.4,0.3-0.5
		c-0.2,0.3-0.7,0.3-0.9,0.6c0,0-0.1,0.1,0,0.2c-0.2,0.1-0.2,0.2-0.2,0.3c0,0.9,2.4,0.3,2.4,0.9c0,0.2-0.4,0.4-1.1,0.4
		c-0.5,0-0.8-0.3-1.7-0.1c0-0.1,0.3-0.4,0.2-0.6c0.1,0,0.1-0.1,0.1-0.2c-0.1-0.1-0.1-0.1-0.2-0.1c0,0,0-0.1,0-0.1c0,0,0-0.1,0-0.1
		c0,0-0.1-0.1-0.2-0.1c-0.1-0.1-0.2-0.1-0.2-0.1c0,0-0.1,0-0.1,0c-0.1,0-0.1,0-0.1,0.1c0,0-0.1-0.1-0.2-0.1c0,0.1-0.1,0.1,0,0.2
		c-0.1,0-0.2,0.2-0.3,0.2c0,0.1,0.1,0.1,0.1,0.1c-0.1,0.1-0.1,0.3-0.2,0.3c0,0,0,0.1,0.1,0.1c-0.1,0.2-0.1,0.4-0.1,0.5h0
		c0,0-0.1-0.1-0.2-0.1c-0.1-0.1-0.1-0.1-0.1-0.3c0-0.1,0.1-0.2,0.1-0.3c0,0,0-0.1,0-0.1c0-0.1-0.1-0.1-0.2-0.1c0,0,0.1,0,0.1,0.1
		c0,0-0.1,0.1-0.1,0.1c0,0-0.1,0.1,0,0.1c0,0,0,0,0,0c0,0,0,0,0,0.1c0,0,0,0,0,0c0-0.1,0-0.2-0.1-0.2c0,0,0,0-0.1,0c0,0,0,0,0,0
		c0-0.1-0.1-0.2-0.2-0.1c0,0,0.1,0,0.1,0c0,0,0,0.1,0,0.1c0,0.1,0,0.1,0.2,0.1c0,0,0,0,0,0c0,0,0,0,0,0c0,0,0,0,0,0
		c-0.2-0.1-0.2,0-0.3,0.1c0,0,0,0,0,0.1c-0.1,0-0.1,0.1,0,0.2c0,0,0-0.1,0.1-0.1c0,0,0,0,0,0c0,0,0,0,0,0c0,0,0,0,0.1,0c0,0,0,0,0,0
		c0,0,0,0,0,0c0,0,0,0,0,0c-0.1,0.1-0.1,0.2,0,0.2c0,0,0,0,0,0c0,0.2-0.3,0.1-0.3,0c-0.2,0.2,0.1,0.4,0.3,0.3c0,0,0,0,0,0
		c0,0,0,0.1,0.1,0.1c0,0,0,0,0,0c0,0,0,0,0,0c0,0,0,0.1,0.1,0.1c0,0,0-0.1,0-0.1c0,0,0.1,0.2,0.2,0.3c-0.2,0.1-0.5,0.2-0.5,0.2
		c0,0-0.3,0-0.4,0c-0.1,0.1-0.5,0.2-0.6,0.1c0,0,0-0.1-0.1-0.2c0,0-0.1-0.1-0.1-0.1h-0.1c-0.1-0.1-0.2-0.1-0.2,0c0,0,0.1,0,0.1,0.1
		c0,0,0,0.1,0,0.1c0,0,0,0.1,0.2,0.2c0,0,0,0,0,0c0,0-0.1,0-0.1,0c-0.1-0.1-0.1-0.2-0.2-0.1c0,0,0,0-0.1,0c0,0,0,0,0,0
		c-0.1,0-0.2,0.1-0.2,0.2c0,0,0-0.1,0.1-0.1c0,0,0,0.1,0,0.1c0,0.1,0.1,0.2,0.3,0c0,0,0,0,0,0c0,0.1-0.2,0.2-0.1,0.3c0,0,0,0,0.1,0
		c0,0,0,0,0,0c0,0.1,0.1,0.2,0.2,0.2c0,0-0.1-0.1-0.1-0.2c0,0,0.1,0,0.1,0c0.1,0,0.1-0.2,0.1-0.2c0,0,0,0,0,0c0,0,0,0.2,0.2,0.2
		c0.1,0,0.2-0.1,0.2-0.2c0,0,0,0,0,0c0,0,0.1,0.1,0.1,0.1c0,0,0.1,0,0.1-0.1c0,0.1,0,0.1,0,0.2c0,0,0.2-0.1,0.2-0.2c0,0,0,0,0,0.1
		c0,0,0,0,0,0c0,0,0.1,0,0.3,0c0,0,0,0,0,0c0,0.1,0,0.1,0,0.1c0,0,0-0.1,0-0.1c0,0,0,0.1,0.1,0.2c0-0.3,0.2-0.2,0.4-0.3c0,0,0,0,0,0
		c0,0,0,0.1-0.1,0.1c0.1,0,0.2-0.1,0.2-0.2c0,0,0.1-0.1,0.1-0.1c0.1,0,0.2,0,0.2-0.1c0,0,0,0.1,0,0.1c0.2,0,0.4-0.2,0.5-0.2
		c0.4-0.1-0.3-0.4,0.6-0.4c0.1,0,0.2,0,0.3-0.1c-0.1,0.1-0.1,0.4,0.1,0.4c0.1,0,0.2,0.1,0.2,0.1c0,0,0,0,0,0c-0.1,0-0.2,0-0.2,0
		c-0.2,0.1-0.2-0.3-0.4-0.2c0,0,0,0-0.1,0c-0.1,0-0.2,0.1-0.2,0.2c0,0,0.1-0.1,0.1-0.1c0,0,0,0,0,0c0,0,0,0.1,0.1,0.1
		c0,0,0.1,0,0.1,0c0,0,0,0,0,0c0,0.1-0.3,0-0.2,0.2c0,0,0,0.1,0,0.1c0,0.1,0.1,0.1,0.2,0.1c0,0-0.1,0-0.1-0.1c0,0,0,0,0.1,0
		c0,0,0,0,0,0c0,0,0,0,0,0c0,0,0,0,0,0c0,0,0,0,0,0.1c0,0,0,0.1,0,0.1c0,0.1,0.1,0.2,0.2,0.1c0,0-0.1,0-0.1-0.1c0,0,0.1,0,0.1,0
		c0,0,0,0,0-0.1c0,0,0,0,0,0c0,0,0,0,0.1,0c0,0,0,0,0,0c0,0.1,0.1,0.1,0.2,0.1c0.2,0,0-0.2,0.1-0.2c0,0,0.1,0,0.1,0
		c0.1,0,0.3,0,0.3,0c0-0.1,0-0.3-0.1-0.3c-0.1,0,0-0.1-0.1-0.2c0.1,0.1,0.3,0.1,0.4,0.1c0.3,0,0,0,0.2-0.1c0.2-0.1,0.3-0.1,0.4,0
		c0,0,0.1,0,0.1,0.1c0,0.2,0,0.2,0,0.3c0,0.1-0.2,0-0.3,0c-0.1,0-0.1,0-0.1,0c-0.1,0-0.2,0.1-0.2,0.2c0,0,0.1-0.1,0.1-0.1
		c0,0,0,0,0,0c0,0.1,0.1,0.2,0.2,0.1c0,0,0,0,0,0c-0.1,0-0.2,0.2-0.1,0.2c0,0,0,0,0.1,0c0,0.1,0,0.1,0.1,0.2c0,0,0-0.1,0-0.1h0.1
		c0.1,0,0-0.1,0.1-0.2c0,0,0,0,0,0c0,0.1,0,0.2,0,0.2c0,0,0,0,0.1,0c0,0.1,0.1,0.1,0.2,0.1c0,0-0.1,0-0.1-0.1c0,0,0-0.1,0.1-0.1
		c0-0.2-0.1-0.2-0.1-0.2c0-0.1,0.2,0,0.2-0.2c0,0,0-0.1-0.1-0.1c0,0,0,0,0,0h0c0,0,0.1,0,0.1-0.1c-0.1,0-0.1-0.1-0.1-0.2
		c0,0,0,0,0,0c0,0,0.1-0.1,0.1-0.2c0,0.1-0.2,0.1-0.2,0c0,0,0-0.1-0.1-0.1C84.1,44.7,84,44.6,83.6,44.5
		C83.5,44.5,83.5,44.5,83.6,44.5"/>
	<path d="M79.8,48.9C79.8,48.9,79.8,48.9,79.8,48.9C79.8,48.9,79.8,48.9,79.8,48.9 M79.1,47.5c0-0.1,0.1-0.1,0.1-0.1
		c0.1,0,0.1,0,0.1-0.1c0-0.1,0-0.1-0.1-0.1c0.1,0,0.1,0,0.1-0.1c0,0-0.1,0-0.1,0c0,0,0,0,0.1-0.1c0,0,0,0,0.1,0l0.3,0.1
		c0,0,0.1,0,0.1,0.1c0,0,0,0.1,0,0.1c0,0,0-0.1-0.1-0.1c0,0,0,0,0,0.1c-0.1,0-0.1-0.1-0.2,0c0,0.1,0,0.1,0,0.1c0,0,0,0.1,0,0.1
		c0,0.1-0.1,0.1-0.2,0.1C79,47.7,79.1,47.6,79.1,47.5 M79.4,46.8c0,0.1-0.1,0.1-0.2,0.1c-0.1-0.1,0-0.1-0.1-0.2
		C79.2,46.7,79.3,46.8,79.4,46.8 M79.6,46.9c0,0,0.2,0.1,0.3,0.1c-0.2,0-0.1,0.1-0.2,0.1S79.6,47,79.6,46.9 M78.3,48.1
		C78.3,48.1,78.3,48.1,78.3,48.1C78.3,48.1,78.3,48.1,78.3,48.1 M84.7,47.6c0-0.3-0.3-0.4-1.1-0.4c-0.8,0-2.7,0.3-2.7-0.2
		c0-0.2,0.4-0.2,0.8-0.2c0,0,0.1,0.1,0.2,0.1c1.1,0.3,2.3-0.3,3-0.1c-0.8-0.6-1.4,0-2.2-0.2c0.5,0,0.6-0.1,0.7-0.3
		c-0.4,0.2-1.1-0.1-1.5,0.1c0,0,0,0-0.1,0.1c-0.6,0-1.1,0-1.1,0.4c0,0.8,2.2,0.3,2.9,0.3c0.7,0,0.8,0.1,0.8,0.2
		c0,0.2-0.7,0.2-1.1,0.2c-0.6,0-2.4-0.3-3.5-0.1c0.1-0.2,0.3-0.4,0.2-0.5c0.1,0,0.2-0.1,0.2-0.2c-0.1-0.1-0.1-0.1-0.2-0.1
		c0,0,0-0.1-0.1-0.1c0,0,0-0.1-0.1-0.1c0,0-0.1-0.1-0.2-0.2c-0.1-0.1-0.2-0.1-0.2-0.1c0,0-0.1,0-0.1,0c-0.1,0-0.1,0-0.1,0.1
		c-0.1-0.1-0.1-0.1-0.2-0.1c0,0.1-0.1,0.2,0,0.3c-0.1,0-0.2,0.3-0.3,0.2c0,0.1,0.1,0.1,0.1,0.1c-0.1,0.1-0.1,0.3-0.2,0.3
		c0.1,0.1,0.1,0.1,0.1,0.1c0,0.1,0,0.2,0,0.3l-0.2-0.1c0,0,0,0,0,0c0,0,0,0-0.1,0c0,0,0.1,0,0.1,0l-0.1,0c-0.1-0.1-0.2-0.2-0.4-0.3
		c-0.2-0.1-0.2-0.2-0.2-0.3c0-0.1,0.1-0.3,0.1-0.4c0,0,0-0.1,0-0.1c0-0.1-0.1-0.2-0.2-0.1c0,0,0.1,0.1,0.1,0.1c0,0-0.1,0.1-0.1,0.1
		c0,0,0,0.1,0,0.1c0,0,0,0,0,0c0,0,0,0,0,0.1c0,0,0,0,0,0c0-0.1-0.1-0.3-0.2-0.3c0,0-0.1,0-0.1,0c0,0,0,0,0,0c0-0.1-0.1-0.2-0.2-0.1
		c0,0,0.1,0,0.1,0c0,0,0,0.1,0,0.1c0,0.1,0.1,0.1,0.2,0.1c0,0,0,0,0,0c0,0,0,0,0,0c0,0,0,0,0,0c-0.2-0.1-0.3,0-0.3,0.1
		c0,0,0,0.1,0,0.1c-0.1,0-0.1,0.1,0,0.2c0,0,0-0.1,0-0.1c0,0,0,0,0,0c0,0,0,0,0,0c0,0,0,0,0.1,0c0,0,0,0,0,0c0,0,0,0,0.1,0
		c0,0,0,0,0,0c-0.1,0.1-0.1,0.2,0,0.3c0,0,0,0,0,0c0,0.2-0.3,0.2-0.3,0c-0.2,0.3,0.1,0.5,0.3,0.3c0,0,0,0,0,0c0,0,0,0.1,0.1,0.1
		c0,0,0-0.1,0.1-0.1c0,0,0,0,0,0c0,0.1,0,0.1,0.1,0.1c0,0,0-0.1,0-0.1c0,0,0.1,0.2,0.3,0.3c0.2,0.1,0.3,0.2,0.4,0.1
		c0,0.2,0.1,0.3,0.1,0.3c0,0-0.5,0-0.6,0c-0.2,0.1-0.5,0.2-0.6,0.1c0-0.1,0-0.1-0.1-0.2c0-0.1-0.1-0.1-0.1-0.1c0,0-0.1,0-0.1,0
		c-0.1-0.1-0.2-0.1-0.3,0c0,0,0.1,0,0.1,0.1c0,0,0,0.1,0,0.1c0,0,0,0.1,0.2,0.2c0,0,0,0,0,0c0,0-0.1,0-0.1,0
		c-0.1-0.1-0.1-0.2-0.2-0.1c0,0,0,0-0.1,0c0,0,0,0,0,0c-0.1,0-0.3,0.1-0.2,0.2c0,0,0.1-0.1,0.1-0.1c0,0,0,0.1,0,0.1
		c0,0.1,0.1,0.2,0.3,0.1c0,0,0,0,0,0c-0.1,0.1-0.2,0.2-0.1,0.3c0,0,0,0,0.1,0c0,0,0,0,0,0c0,0.1,0.1,0.3,0.2,0.2
		c0,0-0.1-0.1-0.1-0.2c0,0,0.1,0,0.1,0c0.1-0.1,0.1-0.2,0.1-0.2c0,0,0,0,0,0c0,0.1,0,0.2,0.2,0.2c0.1,0,0.2-0.1,0.2-0.2c0,0,0,0,0,0
		c0,0,0.1,0.1,0.1,0.2c0,0,0.1,0,0.1-0.1c0,0.1,0,0.2-0.1,0.3c0.1,0,0.2-0.1,0.2-0.2c0,0,0,0.1,0.1,0.1c0,0,0,0,0,0c0,0,0.1,0,0.3,0
		c0,0,0,0,0,0c0,0.1,0,0.1,0,0.1c0,0,0-0.1,0.1-0.1c0,0,0,0.1,0.1,0.2c0-0.4,0.2-0.2,0.5-0.4c0,0,0,0,0,0c0,0,0,0.1-0.1,0.1
		c0.3,0.1,0.7-0.3,0.7-0.5c0.1,0,0.2,0,0.2,0c0.7,0.1,0.2-0.7,1.4-0.4c0.1,0,0.2-0.1,0.3-0.1c-0.1,0.1-0.1,0.5,0.1,0.5
		c0.1,0,0.2,0.1,0.3,0.1c0,0,0,0,0,0c-0.1,0-0.2,0-0.2,0.1c-0.2,0.2-0.3-0.4-0.5-0.3c0,0-0.1,0-0.1,0.1c-0.1,0-0.2,0.1-0.2,0.2
		c0,0,0.1-0.1,0.2-0.1c0,0,0,0.1,0,0.1c0,0,0,0.1,0.1,0.1c0,0,0.1,0,0.1,0c0,0,0,0,0,0c0,0.1-0.3-0.1-0.3,0.2c0,0,0,0.1,0,0.1
		c0,0.1,0.1,0.2,0.2,0.1c0,0-0.1-0.1-0.1-0.1c0,0,0.1,0,0.1,0c0,0,0,0,0,0c0,0,0,0,0,0c0,0,0,0,0,0c0,0,0,0,0,0.1c0,0,0,0.1,0,0.1
		c0,0.1,0.1,0.2,0.3,0.1c0,0-0.1,0-0.1-0.1c0,0,0.1,0,0.1,0c0,0,0-0.1,0-0.1c0,0,0,0,0,0c0,0,0,0,0.1,0c0,0,0,0,0,0
		c0,0.1,0.1,0.1,0.2,0.1c0.2-0.1,0-0.2,0.2-0.2c0,0,0.1,0,0.1,0c0.1,0,0.3,0,0.4,0c0-0.1,0-0.3-0.1-0.4c-0.1,0,0-0.2-0.1-0.3
		c0.2,0.1,0.3,0.1,0.5,0.1c0.4,0,0.5-0.1,0.6-0.2c0.2-0.1,0.4-0.1,0.5,0c0,0,0.1,0,0.1,0.1c0,0.2,0,0.2,0,0.3c0,0.1-0.2,0-0.3,0
		c-0.1,0-0.1,0-0.1,0.1c-0.1,0-0.2,0.1-0.2,0.2c0,0,0.1-0.1,0.2-0.1c0,0,0,0,0,0c0,0.1,0.2,0.2,0.2,0.1c0,0,0,0,0,0
		c-0.1,0.1-0.2,0.2-0.1,0.2c0,0,0,0,0.1,0c0,0.1,0.1,0.2,0.1,0.2c0,0,0-0.1,0-0.2c0,0,0.1,0,0.1,0c0.1,0,0-0.2,0.1-0.2c0,0,0,0,0,0
		c0,0.1-0.1,0.2,0,0.2c0,0,0,0,0.1,0c0,0.1,0.1,0.1,0.2,0.1c0,0-0.1,0-0.1-0.1c0,0,0.1-0.1,0.1-0.1c0.1-0.2-0.1-0.2-0.1-0.3
		c0-0.1,0.2,0,0.2-0.2c0,0,0-0.1-0.1-0.1c0,0,0,0,0,0l0,0c0.1,0,0.1,0,0.1-0.1c-0.2,0-0.1-0.1-0.1-0.2c0,0,0,0,0,0
		c0,0,0.1-0.1,0.1-0.2c-0.1,0.1-0.2,0.1-0.2,0c0,0,0-0.1-0.2-0.1c-0.3,0-0.4,0-0.9-0.1C83.9,48.1,84.7,47.9,84.7,47.6"/>
	<path d="M78.1,51.2C78.2,51.1,78.2,51.1,78.1,51.2c0.1-0.1,0.2-0.1,0.2-0.2c0-0.1,0-0.1-0.1-0.1c0.1,0,0.1,0,0.1-0.1
		c0,0-0.1,0-0.1,0c0,0,0,0,0.1-0.1c0,0,0,0,0.1,0l0.3,0.1c0,0,0,0,0,0.1c0,0,0,0.1,0,0.1c0,0,0-0.1-0.1-0.1c0,0,0,0,0,0.1
		c-0.1,0-0.1,0-0.1,0c0,0,0,0.1,0,0.1c0,0,0,0.1,0,0.1c0,0.1-0.1,0.1-0.2,0.1C78.1,51.3,78.1,51.2,78.1,51.2 M78.4,50.5
		c0,0.1-0.1,0.1-0.2,0.1c-0.1-0.1,0-0.1-0.1-0.2C78.2,50.4,78.4,50.5,78.4,50.5 M78.6,50.6c0,0,0.2,0.1,0.3,0.1
		c-0.1,0-0.1,0.1-0.2,0.1C78.6,50.8,78.6,50.7,78.6,50.6 M84.4,51.3c0-0.2-0.3-0.4-1.1-0.4c-0.8,0-3.2,0.3-3.2-0.1
		c0-0.3,0.8-0.2,1.4-0.2c0,0,0.1,0.1,0.2,0.1c1,0.3,2.1-0.4,2.8-0.1c-0.6-0.5-1.3,0.1-2.1-0.1c0.4,0,0.9-0.1,0.9-0.2
		c-0.3,0.2-1.3-0.2-1.7,0.1c0,0,0,0-0.1,0.1c-0.7,0-1.7-0.1-1.7,0.3c0,0.8,2.8,0.3,3.4,0.3c0.7,0,0.8,0.1,0.8,0.2
		c0,0.2-0.7,0.2-1,0.2c-0.6,0-3.2-0.3-4.2,0c0.1-0.2,0.3-0.4,0.2-0.6c0.1,0,0.2-0.1,0.2-0.2c-0.1-0.1-0.1-0.1-0.2-0.1
		c0,0,0-0.1,0-0.1c0,0,0-0.1-0.1-0.1c0,0-0.1-0.1-0.2-0.2c-0.1-0.1-0.2-0.1-0.2-0.1c0,0-0.1,0-0.1,0c-0.1,0-0.1,0-0.1,0.1
		c0,0-0.1-0.1-0.2-0.1c0,0.1-0.1,0.2,0,0.3c-0.1,0-0.2,0.2-0.3,0.2c0,0.1,0.1,0.1,0.1,0.1c-0.1,0.1-0.1,0.3-0.2,0.3
		c0,0,0.1,0.1,0.1,0.1c0,0.1,0,0.2,0,0.2l-0.1,0c-0.1,0-0.1,0-0.1,0c0,0-0.1,0-0.1,0c-0.1,0-0.2-0.2-0.4-0.3
		c-0.2-0.1-0.2-0.2-0.2-0.3c0-0.1,0.1-0.3,0.1-0.4c0,0,0-0.1,0-0.1c0-0.1-0.1-0.2-0.2-0.1c0,0,0.1,0.1,0.1,0.1c0,0-0.1,0.1-0.1,0.1
		c0,0,0,0.1,0,0.1c0,0,0,0,0,0c0,0,0,0,0,0.1c0,0,0,0,0,0c0-0.1-0.1-0.2-0.2-0.2c0,0,0,0-0.1,0c0,0,0,0,0,0c0-0.1-0.1-0.2-0.2-0.1
		c0,0,0.1,0,0.1,0c0,0,0,0.1,0,0.1c0,0.1,0.1,0.1,0.2,0.1c0,0,0,0,0,0c0,0,0,0,0,0c0,0,0,0,0,0c-0.2-0.1-0.3,0-0.3,0.1
		c0,0,0,0,0,0.1c-0.1,0-0.1,0.1,0,0.2c0,0,0-0.1,0-0.1c0,0,0,0,0,0c0,0,0,0,0.1,0c0,0,0,0,0.1,0c0,0,0,0,0,0c0,0,0,0,0.1,0
		c0,0,0,0,0,0c-0.1,0.1-0.1,0.2,0.1,0.3c0,0,0,0,0,0c0,0.2-0.3,0.2-0.3,0c-0.2,0.3,0.1,0.4,0.3,0.3c0,0,0,0,0,0c0,0,0,0.1,0.1,0.1
		c0,0,0,0,0.1,0c0,0,0,0,0,0c0,0.1,0,0.1,0.1,0.1c0,0,0-0.1,0-0.1c0,0,0.2,0.3,0.5,0.5c0.1,0,0.2,0,0.2-0.1c0,0,0,0.1,0.1,0.1
		c0,0.1,0.1,0.3,0.1,0.3c0,0-0.5,0-0.6,0c-0.2,0.1-0.5,0.2-0.6,0.1c0-0.1,0-0.1-0.1-0.2c0-0.1-0.1-0.1-0.1-0.1c0,0-0.1,0-0.1,0
		C76.1,52,76,52,75.9,52c0,0,0.1,0,0.1,0.1c0,0,0,0.1,0,0.1c0,0.1,0,0.1,0.2,0.2c0,0,0,0,0,0c0,0-0.1,0-0.1,0
		c-0.1-0.1-0.1-0.2-0.2-0.1c0,0,0,0-0.1,0c0,0,0,0,0,0c-0.1,0-0.3,0.1-0.2,0.2c0,0,0.1-0.1,0.1-0.1c0,0,0,0.1,0,0.1
		c0,0.1,0.1,0.2,0.3,0c0,0,0,0,0,0c-0.1,0.1-0.2,0.2-0.1,0.3c0,0,0,0,0.1,0c0,0,0,0,0,0c0,0.1,0.1,0.2,0.2,0.2c0,0-0.1-0.1-0.1-0.2
		c0,0,0.1,0,0.1,0c0.1,0,0.1-0.2,0.1-0.2c0,0,0,0,0,0c0,0.1,0,0.2,0.2,0.2c0.1,0,0.2-0.1,0.2-0.2c0,0,0,0,0,0c0,0,0.1,0.1,0.1,0.1
		c0,0,0.1,0,0.1-0.1c0,0.1,0,0.2-0.1,0.2c0.1,0,0.2-0.1,0.2-0.2c0,0,0,0.1,0,0.1c0,0,0,0,0,0c0,0,0.1,0,0.3,0c0,0,0,0,0,0
		c0,0.1,0,0.1,0,0.1c0,0,0-0.1,0.1-0.1c0,0,0,0.1,0.1,0.2c0-0.3,0.4-0.2,0.7-0.3c0,0,0,0,0,0c0,0,0,0.1-0.1,0.1c0.1,0,0.2,0,0.3-0.1
		c0,0,0,0,0,0l0.4-0.2c0,0,0-0.1,0-0.1c0,0,0.1,0,0.1,0c0,0,0,0,0,0c0.2,0,0.2-0.2,0.3-0.2c1.3,0.2,0.5-0.6,2.1-0.4
		c0.1,0,0.1,0,0.2-0.1c-0.1,0.1-0.1,0.4,0.1,0.4c0.1,0,0.2,0.1,0.3,0.1c0,0,0,0,0,0c-0.1,0-0.2,0-0.2,0.1c-0.2,0.2-0.2-0.3-0.5-0.3
		c0,0-0.1,0-0.1,0.1c-0.1,0-0.2,0.1-0.2,0.2c0,0,0.1-0.1,0.2-0.1c0,0,0,0,0,0.1c0,0,0,0.1,0.1,0.1c0.1,0,0.1,0,0.1,0c0,0,0,0,0,0
		c0,0.1-0.3,0-0.2,0.2c0,0,0,0.1,0,0.1c0,0.1,0.1,0.2,0.2,0.1c0,0-0.1-0.1-0.1-0.1h0.1c0,0,0,0,0,0c0,0,0,0,0,0c0,0,0,0,0,0
		c0,0,0,0,0,0.1c0,0,0,0.1,0,0.1c0,0.1,0.1,0.2,0.3,0.1c0,0-0.1,0-0.1-0.1c0,0,0.1,0,0.1,0c0,0,0-0.1,0-0.1c0,0,0,0,0,0
		c0,0,0,0,0.1,0c0,0,0,0,0,0c0,0.1,0.1,0.1,0.2,0.1c0.2-0.1,0-0.2,0.2-0.2c0,0,0.1,0,0.1,0c0.1,0,0.3,0,0.4,0c0-0.1,0-0.3-0.1-0.4
		c-0.1,0,0-0.1-0.1-0.3c0.1,0.1,0.3,0.1,0.5,0.1c0.4,0,0.5-0.1,0.6-0.2c0.2-0.1,0.4-0.1,0.4,0c0,0,0.1,0,0.1,0.1c0,0.2,0,0.2,0,0.3
		c0,0.1-0.2,0-0.3,0c-0.1,0-0.1,0-0.1,0.1c-0.1,0-0.2,0.1-0.2,0.2c0,0,0.1-0.1,0.2-0.1c0,0,0,0,0,0c0,0.1,0.2,0.2,0.2,0.1
		c0,0,0,0,0,0c-0.1,0.1-0.2,0.2-0.1,0.2c0,0,0,0,0.1,0c0,0.1,0.1,0.2,0.1,0.2c0,0,0-0.1,0-0.1h0.1c0.1,0,0-0.2,0.1-0.2c0,0,0,0,0,0
		c0,0.1,0,0.2,0,0.2c0,0,0,0,0.1,0c0,0.1,0.1,0.1,0.2,0.1c0,0-0.1,0-0.1-0.1c0,0,0.1-0.1,0.1-0.1c0.1-0.2-0.1-0.2-0.1-0.3
		c0-0.1,0.2,0,0.2-0.2c0,0,0-0.1-0.1-0.1c0,0,0,0,0,0v0c0.1,0,0.1,0,0.1-0.1c-0.1,0-0.1-0.1-0.1-0.2c0,0,0,0,0,0
		c0,0,0.1-0.1,0.1-0.2c0,0.1-0.2,0.1-0.2,0c0,0,0-0.1-0.2-0.1c-0.2,0-0.4,0-0.9-0.1C83.5,51.7,84.4,51.6,84.4,51.3"/>
	<path d="M89.3,55.8C89.2,55.8,89.2,55.8,89.3,55.8C89.2,55.8,89.2,55.8,89.3,55.8 M89.2,56L89.2,56L89.2,56z M89.4,56.4
		C89.4,56.3,89.5,56.3,89.4,56.4c0.1-0.1,0.2-0.1,0.2-0.2c0-0.1,0-0.1-0.1-0.1c0.1,0,0.1,0,0.1-0.1c0,0-0.1,0-0.1,0c0,0,0,0,0-0.1
		c0,0,0,0,0.1,0l0.2,0.1c0,0,0,0,0,0.1c0,0,0,0.1,0,0.1c0,0,0-0.1-0.1-0.1c0,0,0,0,0,0.1c-0.1,0-0.1-0.1-0.1,0c0,0,0,0.1,0,0.1
		c0,0,0,0.1,0,0.1c0,0.1-0.1,0.1-0.2,0.1C89.4,56.5,89.4,56.4,89.4,56.4 M89.7,55.8c0,0.1-0.1,0.1-0.2,0.1c-0.1-0.1,0-0.1-0.1-0.2
		C89.5,55.7,89.7,55.7,89.7,55.8 M89.9,55.8c0,0,0.2,0.1,0.3,0.1c-0.1,0-0.1,0.1-0.2,0.1C89.9,56.1,89.9,55.9,89.9,55.8 M95.6,57.3
		C95.6,57.3,95.6,57.3,95.6,57.3c0.1-0.1,0.1-0.1,0.1-0.2c-0.1,0.1-0.2,0.1-0.2,0c0,0,0-0.1-0.1-0.1c-0.2,0-0.5,0-0.9-0.1
		c0,0,0,0,0,0c0.4,0,1.3-0.1,1.3-0.4c0-0.2-0.3-0.4-1.1-0.4c-0.8,0-3.2,0.3-3.2-0.2c0-0.3,0.8-0.2,1.4-0.1c0,0,0.1,0.1,0.2,0.1
		c1,0.3,2.2-0.5,2.8-0.3c-0.8-0.3-1.3,0.2-2.1,0c0.4,0,0.9-0.1,0.9-0.2c-0.3,0.2-1.3-0.2-1.7,0.1c0,0-0.1,0-0.1,0.1
		c-0.7,0-1.7-0.1-1.7,0.3c0,0.8,2.8,0.3,3.4,0.3c0.7,0,0.8,0.1,0.8,0.2c0,0.2-0.7,0.2-1,0.2c-0.6,0-3.2-0.3-4.2,0
		c0.1-0.2,0.3-0.4,0.2-0.6c0.1,0,0.2-0.1,0.2-0.2c-0.1-0.1-0.1-0.1-0.2-0.1c0,0,0-0.1,0-0.1c0,0,0-0.1-0.1-0.1c0,0-0.1-0.1-0.2-0.2
		c-0.1-0.1-0.2-0.1-0.2-0.1c0,0-0.1,0-0.1,0c-0.1,0-0.1,0-0.1,0.1c0,0-0.1-0.1-0.2-0.1c0,0.1-0.1,0.2,0,0.3c-0.1,0-0.2,0.2-0.3,0.2
		c0,0.1,0.1,0.1,0.1,0.1c-0.1,0.1-0.1,0.3-0.2,0.3c0.1,0.1,0.1,0.1,0.1,0.1c0,0.1,0,0.2,0,0.2l-0.1,0c-0.1,0-0.1,0-0.1,0
		c0,0-0.1,0-0.1,0c-0.1,0-0.2-0.2-0.4-0.3C88,56.1,88,56,88,55.9c0-0.1,0.1-0.3,0.1-0.4c0,0,0-0.1,0-0.1c0-0.1-0.1-0.2-0.2-0.1
		c0,0,0.1,0.1,0.1,0.1c0,0-0.1,0.1-0.1,0.1c0,0,0,0.1,0,0.1c0,0,0,0,0,0c0,0,0,0,0,0.1c0,0,0,0,0,0c0-0.1-0.1-0.2-0.2-0.2
		c0,0,0,0-0.1,0c0,0,0,0,0,0c0-0.1-0.1-0.2-0.2-0.1c0,0,0.1,0,0.1,0c0,0,0,0.1,0,0.1c0,0.1,0.1,0.1,0.2,0.1c0,0,0,0,0,0c0,0,0,0,0,0
		c0,0,0,0,0,0c-0.2-0.1-0.3,0-0.3,0.1c0,0,0,0.1,0,0.1c-0.1,0-0.1,0.1,0,0.2c0,0,0-0.1,0-0.1c0,0,0,0,0,0c0,0,0,0,0,0c0,0,0,0,0.1,0
		c0,0,0,0,0,0c0,0,0,0,0.1,0c0,0,0,0,0,0c-0.1,0.1-0.1,0.2,0.1,0.3c0,0,0,0,0,0c0,0.2-0.3,0.2-0.3,0c-0.2,0.3,0.1,0.4,0.3,0.3
		c0,0,0,0,0,0c0,0,0,0.1,0.1,0.1c0,0,0,0,0,0c0,0,0,0,0,0c0,0.1,0,0.1,0.1,0.1c0,0,0-0.1,0-0.1c0,0,0.2,0.3,0.5,0.5
		c0,0,0.1-0.1,0.2-0.1c0,0.1,0,0.1,0.1,0.1l0.1,0c0,0.1,0.2,0.3,0.1,0.3c0,0-0.3,0-0.5,0c-0.1,0.1-0.5,0.2-0.6,0.1
		c0-0.1,0-0.1-0.1-0.2c0-0.1-0.1-0.1-0.1-0.1c0,0,0,0-0.1,0c-0.1-0.1-0.2-0.1-0.2,0c0,0,0.1,0,0.1,0.1c0,0,0,0.1,0,0.1
		c0,0.1,0,0.1,0.2,0.2c0,0,0,0,0,0c0,0-0.1,0-0.1,0c-0.1-0.1-0.1-0.2-0.2-0.1c0,0,0,0-0.1,0c0,0,0,0,0,0c-0.1,0-0.3,0.1-0.2,0.2
		c0,0,0-0.1,0.1-0.1c0,0,0,0.1,0,0.1c0,0.1,0.1,0.2,0.3,0.1c0,0,0,0,0,0c-0.1,0.1-0.2,0.2-0.1,0.3c0,0,0,0,0.1,0c0,0,0,0,0,0
		c0,0.1,0.1,0.2,0.2,0.2c0,0-0.1-0.1-0.1-0.2c0,0,0.1,0,0.1,0c0.1,0,0.1-0.2,0.1-0.2c0,0,0,0,0,0c0,0.1,0,0.2,0.2,0.2
		c0.1,0,0.2-0.1,0.2-0.2c0,0,0,0,0,0c0,0,0.1,0.1,0.1,0.2c0,0,0.1-0.1,0.1-0.1c0,0.1,0,0.1-0.1,0.2c0.1,0,0.2-0.1,0.2-0.2
		c0,0,0,0.1,0,0.1c0,0,0,0,0,0c0,0,0.1,0,0.3,0c0,0,0,0,0,0c0,0.1,0,0.1,0,0.1c0,0,0-0.1,0.1-0.1c0,0,0,0.1,0.1,0.2
		c0-0.4,0.2-0.2,0.4-0.4c0,0,0,0,0,0c0,0,0,0.1-0.1,0.1c0.1,0.1,0.4-0.1,0.4-0.3c0,0,0.1,0,0.2-0.1c0.2,0,0.2-0.2,0.3-0.2
		c1.3,0.2,0.5-0.5,2.1-0.4c0.1,0,0.1-0.1,0.2-0.1c-0.1,0.1-0.1,0.4,0.1,0.5c0.1,0,0.2,0.1,0.3,0.1c0,0,0,0,0,0c-0.1,0-0.2,0-0.2,0.1
		c-0.2,0.2-0.2-0.3-0.5-0.3c0,0-0.1,0-0.1,0.1c-0.1,0-0.2,0.1-0.2,0.2c0,0,0.1-0.1,0.2-0.1v0.1c0,0,0,0.1,0.1,0.1c0.1,0,0.1,0,0.1,0
		c0,0,0,0,0,0c0,0.1-0.3,0-0.3,0.2c0,0,0,0.1,0.1,0.1c0,0.1,0.1,0.2,0.2,0.1c0,0-0.1-0.1-0.1-0.1c0,0,0.1,0,0.1,0c0,0,0,0,0,0
		c0,0,0,0,0,0c0,0,0,0,0,0c0,0,0,0,0,0.1c0,0,0,0.1,0,0.1c0,0.1,0.1,0.2,0.3,0.1c0,0-0.1,0-0.1-0.1c0,0,0.1,0,0.1,0c0,0,0-0.1,0-0.1
		c0,0,0,0,0,0c0,0,0,0,0.1,0c0,0,0,0,0,0c0,0.1,0.1,0.1,0.2,0.1c0.2-0.1,0-0.2,0.2-0.2c0,0,0.1,0,0.1,0c0.1,0,0.3,0,0.4,0
		c0-0.1,0-0.3-0.1-0.4c-0.1,0,0-0.1-0.1-0.3c0.1,0.1,0.3,0.1,0.5,0.1c0.4,0,0.5-0.1,0.6-0.1c0.2-0.1,0.4-0.1,0.4,0
		c0,0,0.1,0,0.1,0.1c-0.1,0.2,0,0.2,0,0.3c0,0.1-0.2,0-0.3,0c-0.1,0-0.1,0-0.1,0.1c-0.1,0-0.2,0.1-0.2,0.2c0,0,0.1-0.1,0.2-0.1v0
		c0,0.1,0.1,0.2,0.2,0.1c0,0,0,0,0,0c-0.1,0.1-0.2,0.2-0.1,0.2c0,0,0,0,0.1,0c0,0.1,0,0.2,0.1,0.2c0,0,0-0.1,0-0.2H95
		c0.1,0,0.1-0.2,0.2-0.2c0,0,0,0,0,0c0,0.1-0.1,0.2,0,0.2c0,0,0,0,0.1,0c0,0.1,0.1,0.1,0.2,0.1c0,0-0.1,0-0.1-0.1
		c0,0,0.1-0.1,0.1-0.1c0.1-0.2-0.1-0.2-0.1-0.3c0-0.1,0.2,0,0.2-0.2c0,0,0-0.1-0.1-0.1c0,0,0,0,0,0h0c0.1,0,0.1,0,0.1-0.1
		C95.5,57.5,95.6,57.4,95.6,57.3"/>
	<path d="M89.9,59.5c-0.1,0-0.1-0.1-0.1-0.2c0,0,0.2,0.1,0.3,0.1C89.9,59.5,90,59.5,89.9,59.5 M89.7,59.7
		C89.7,59.7,89.7,59.6,89.7,59.7C89.6,59.6,89.6,59.7,89.7,59.7c-0.1,0-0.2,0-0.2,0c0,0.1,0,0.1,0,0.1c0,0,0,0.1,0,0.1
		c0,0.1-0.1,0.1-0.2,0.1c-0.1,0-0.1-0.1,0-0.2c0-0.1,0-0.1,0.1-0.1c0.1,0,0.1,0,0.1-0.1c0-0.1,0-0.1-0.1-0.1c0.1,0,0.1,0,0.1-0.1
		c0,0-0.1,0-0.1,0c0,0,0,0,0-0.1c0,0,0,0,0.1,0l0.2,0.1C89.7,59.6,89.8,59.6,89.7,59.7C89.8,59.6,89.8,59.7,89.7,59.7 M89.6,59.2
		c0,0.1-0.1,0.1-0.2,0.1c-0.1-0.1,0-0.1-0.1-0.2C89.4,59.2,89.5,59.2,89.6,59.2 M92,59.3c0,0.1,0.1,0.1,0.2,0.1
		c1,0.3,2.1-0.4,2.6-0.3c-0.8-0.3-1.2,0.2-2,0c0.4,0,0.9-0.1,0.9-0.2c-0.3,0.2-1.3-0.1-1.7,0.1c0,0,0,0-0.1,0c-0.5,0-1,0-1,0.3
		c0,0.7,2,0.3,2.6,0.3c0.6,0,0.6,0.1,0.6,0.2c0,0.2-0.7,0.2-1.1,0.2c-0.5,0-2.2-0.3-3.2-0.1c0.1-0.2,0.3-0.4,0.2-0.5
		c0.1,0,0.2-0.1,0.2-0.2c-0.1,0-0.1-0.1-0.2-0.1c0,0,0-0.1,0-0.1c0,0,0-0.1-0.1-0.1c0,0-0.1-0.1-0.2-0.1c-0.1-0.1-0.2-0.1-0.2-0.1
		c0,0-0.1,0-0.1,0c-0.1,0-0.1,0-0.1,0.1c0,0-0.1-0.1-0.2-0.1c0,0.1-0.1,0.2,0,0.3c-0.1,0-0.2,0.2-0.3,0.2c0,0.1,0.1,0.1,0.1,0.1
		c-0.1,0.1-0.1,0.3-0.2,0.3c0,0,0.1,0.1,0.1,0.1c0,0.1,0,0.2,0,0.3l-0.1,0h0c-0.1,0-0.2,0-0.4-0.1c-0.2-0.1-0.2-0.2-0.2-0.3
		c0-0.1,0.1-0.2,0.1-0.4c0,0,0-0.1,0-0.1c0-0.1-0.1-0.1-0.2-0.1c0,0,0.1,0.1,0.1,0.1c0,0-0.1,0.1-0.1,0.1c0,0,0,0.1,0,0.1
		c0,0,0,0,0,0c0,0,0,0,0,0.1c0,0,0,0,0,0c0-0.1-0.1-0.2-0.2-0.2c0,0,0,0-0.1,0c0,0,0,0,0,0c0-0.1-0.1-0.2-0.2-0.1c0,0,0.1,0,0.1,0
		c0,0,0,0.1,0,0.1c0,0.1,0.1,0.1,0.2,0.1c0,0,0,0,0,0c0,0,0,0,0,0c0,0,0,0,0,0c-0.2-0.1-0.2,0-0.2,0.1c0,0,0,0.1,0,0.1
		c-0.1,0-0.1,0.1,0,0.2c0,0,0-0.1,0-0.1c0,0,0,0,0,0c0,0,0,0,0,0c0,0,0,0,0.1,0c0,0,0,0,0,0c0,0,0,0,0.1,0c0,0,0,0,0,0
		C87.8,59.9,87.8,60,88,60c0,0,0,0,0,0c0,0.2-0.3,0.2-0.3,0c-0.1,0.2,0.1,0.4,0.3,0.3c0,0,0,0,0,0c0,0,0,0.1,0.1,0.1c0,0,0,0,0,0
		c0,0,0,0,0,0c0,0.1,0,0.1,0.1,0.1c0,0,0-0.1,0-0.1c0,0,0-0.1,0.3,0.1c0,0,0,0.1,0.1,0.1l0.2,0c0,0.1,0,0.4,0,0.4c0,0-0.3,0-0.4,0
		C88.3,61,88,61.1,87.9,61c0-0.1,0-0.1-0.1-0.2c0-0.1-0.1-0.1-0.1-0.1h-0.1c-0.1-0.1-0.2-0.1-0.2,0c0,0,0.1,0,0.1,0.1
		c0,0,0,0.1,0,0.1c0,0,0,0.1,0.2,0.2c0,0,0,0,0,0c0,0-0.1,0-0.1,0c-0.1-0.1-0.1-0.2-0.2-0.1c0,0,0,0-0.1,0c0,0,0,0,0,0
		c-0.1,0-0.2,0.1-0.2,0.2c0,0,0-0.1,0.1-0.1c0,0,0,0.1,0,0.1c0,0.1,0.1,0.2,0.3,0c0,0,0,0,0,0c-0.1,0.1-0.2,0.2-0.1,0.3
		c0,0,0,0,0.1,0c0,0,0,0,0,0c0,0.1,0.1,0.2,0.2,0.2c0,0-0.1-0.1-0.1-0.2c0,0,0.1,0,0.1,0c0.1,0,0.1-0.2,0.1-0.2c0,0,0,0,0,0
		c0,0.1,0,0.2,0.2,0.2c0.1,0,0.2-0.1,0.2-0.2c0,0,0,0,0,0c0,0,0.1,0.1,0.1,0.1c0,0,0.1-0.1,0.1-0.1c0,0.1,0,0.1-0.1,0.2
		c0.1,0,0.2-0.1,0.2-0.2c0,0,0,0.1,0,0.1c0,0,0,0,0,0c0,0,0.1,0,0.3,0c0,0,0,0,0,0c0,0.1,0,0.1,0,0.1c0,0,0-0.1,0.1-0.1
		c0,0,0,0.1,0.1,0.2c0-0.3,0.3-0.2,0.5-0.4c0,0,0,0,0,0c0,0,0,0.1-0.1,0.1c0.2,0.1,0.5-0.2,0.5-0.3c0,0,0,0,0.1-0.1c0,0,0,0.1,0,0.1
		c0.2,0,0.2-0.2,0.3-0.1c0.7,0.1,0.2-0.5,1.2-0.4c0.1,0,0.2-0.1,0.3-0.1c-0.1,0.1-0.1,0.4,0.1,0.4c0.1,0,0.2,0.1,0.2,0.1
		c0,0,0,0,0,0c-0.1,0-0.2,0-0.2,0.1c-0.2,0.1-0.2-0.3-0.5-0.2c0,0,0,0-0.1,0c-0.1,0-0.2,0.1-0.2,0.2c0,0,0.1-0.1,0.2-0.1
		c0,0,0,0,0,0.1c0,0,0,0.1,0.1,0.1c0.1,0,0.1,0,0.1,0c0,0,0,0,0,0c0,0.1-0.3-0.1-0.2,0.2c0,0,0,0.1,0,0.1c0,0.1,0.1,0.2,0.2,0.1
		c0,0-0.1-0.1-0.1-0.1c0,0,0.1,0,0.1,0c0,0,0,0,0,0c0,0,0,0,0,0c0,0,0,0,0,0c0,0,0,0,0,0.1c0,0,0,0.1,0,0.1c0,0.1,0.1,0.2,0.3,0.1
		c0,0-0.1,0-0.1-0.1c0,0,0.1,0,0.1,0c0,0,0,0,0-0.1c0,0,0,0,0,0c0,0,0,0,0.1,0c0,0,0,0,0,0c0,0.1,0.1,0.1,0.2,0.1
		c0.2-0.1,0-0.2,0.2-0.2c0,0,0.1,0,0.1,0c0.1,0,0.3,0,0.3,0c0-0.1,0-0.3-0.1-0.4c-0.1,0,0-0.1-0.1-0.3c0.1,0.1,0.3,0.1,0.5,0.1
		c0.3,0,0.5,0,0.7-0.1c0.2-0.1,0.4-0.1,0.4,0c0,0,0.1,0,0,0.1c-0.1,0.2,0,0.2-0.1,0.3c-0.1,0.1-0.2,0-0.3,0c-0.1,0-0.1,0-0.1,0
		c-0.1,0-0.2,0.1-0.2,0.2c0,0,0.1-0.1,0.2-0.1c0,0,0,0,0,0c0,0.1,0.1,0.2,0.2,0.1c0,0,0,0,0,0c-0.1,0.1-0.2,0.2-0.2,0.2l0.1,0
		c0,0.1,0,0.2,0.1,0.2c0,0,0-0.1,0-0.1c0,0,0.1,0,0.1,0c0.1,0,0.1-0.2,0.2-0.2c0,0,0,0,0,0c-0.1,0.1-0.1,0.2,0,0.2c0,0,0,0,0.1,0
		c0,0.1,0.1,0.1,0.2,0.1c0,0-0.1,0-0.1-0.1c0,0,0.1-0.1,0.1-0.1c0.1-0.2-0.1-0.2,0-0.3c0-0.1,0.2,0,0.2-0.2c0,0,0-0.1-0.1-0.1
		c0,0,0,0,0,0h0c0.1,0,0.1,0,0.1-0.1c-0.1,0-0.1-0.1-0.1-0.2c0,0,0,0,0,0c0.1,0,0.1-0.1,0.1-0.2c-0.1,0.1-0.2,0.1-0.2,0
		c0,0,0-0.1-0.1-0.1c-0.2,0-0.6,0-1-0.1c0,0,0,0,0,0c0.4,0,1.3-0.1,1.3-0.4c0-0.2,0-0.4-0.8-0.4c-0.7,0-2.4,0.3-2.4-0.1
		C91.3,59.3,91.6,59.3,92,59.3"/>
	<path d="M89,63.3C89,63.3,89,63.2,89,63.3c0.1-0.1,0.1-0.1,0.2-0.1c0-0.1,0-0.1-0.1-0.1c0.1,0,0.1,0,0.1-0.1c0,0-0.1,0-0.1,0
		c0,0,0,0,0-0.1c0,0,0,0,0.1,0l0.2,0.1c0,0,0,0,0,0.1c0,0,0,0.1,0,0.1c0,0,0-0.1-0.1-0.1c0,0,0,0,0,0.1c-0.1,0-0.1,0-0.1,0
		c0,0,0,0.1,0,0.1c0,0,0,0.1,0,0.1c0,0-0.1,0.1-0.2,0.1C89,63.5,89,63.4,89,63.3 M89.3,62.8c0,0.1-0.1,0.1-0.2,0.1
		c-0.1-0.1,0-0.1-0.1-0.2C89.1,62.7,89.2,62.8,89.3,62.8 M89.4,62.9c0,0,0.2,0.1,0.3,0.1c-0.1,0-0.1,0.1-0.2,0.1
		C89.4,63,89.4,62.9,89.4,62.9 M91.2,62.8c0,0.1,0.1,0.1,0.2,0.1c1,0.3,2.1-0.4,2.7-0.3c-0.8-0.3-1.2,0.2-2,0c0.4,0,0.9-0.1,0.9-0.2
		c-0.3,0.2-1.3-0.2-1.7,0.1c0,0-0.1,0-0.1,0.1c-0.3,0.1-0.5,0.2-0.5,0.4c0,0.6,2.5,0.1,2.5,0.3c0,0.2-0.5,0.3-1.1,0.3
		c-0.5,0-1.3-0.3-2.4-0.1v0c0.1-0.2,0.3-0.5,0.2-0.6c0.1,0,0.1-0.1,0.2-0.2c-0.1-0.1-0.1-0.1-0.2-0.1c0-0.1,0-0.1,0-0.1
		c0,0,0-0.1,0-0.1c0,0-0.1-0.1-0.2-0.1c-0.1-0.1-0.2,0-0.2-0.1c0,0-0.1,0-0.1,0c0,0-0.1,0-0.1,0c0,0-0.1-0.1-0.2-0.1
		c0,0.1-0.1,0.1,0,0.3c-0.1,0-0.2,0.2-0.3,0.2c0,0.1,0.1,0.1,0.1,0.1c-0.1,0.1-0.1,0.3-0.2,0.3c0,0,0.1,0.1,0.1,0.1
		c0,0.2-0.1,0.4,0,0.6c-0.1-0.2-0.4-0.5-0.5-0.6c-0.1-0.1-0.1-0.2-0.1-0.3c0-0.1,0.1-0.2,0-0.3c0,0,0-0.1,0-0.1
		c0-0.1-0.1-0.1-0.2-0.1c0,0,0.1,0.1,0.1,0.1c0,0-0.1,0.1-0.1,0.1c0,0,0,0.1,0,0.1c0,0,0,0,0,0c0,0,0,0,0,0.1c0,0,0,0,0,0
		c0-0.1-0.1-0.2-0.1-0.2c0,0,0,0-0.1,0c0,0,0,0,0,0c0-0.1-0.1-0.2-0.2-0.1c0,0,0.1,0,0.1,0c0,0,0,0.1,0,0.1c0,0.1,0.1,0.1,0.2,0.1
		c0,0,0,0,0,0c0,0,0,0,0,0c0,0,0,0,0,0c-0.2-0.1-0.2,0-0.2,0.1c0,0,0,0,0,0.1c-0.1,0-0.1,0.1,0,0.2c0,0,0-0.1,0-0.1c0,0,0,0,0,0
		c0,0,0,0,0,0c0,0,0,0,0.1,0c0,0,0,0,0,0c0,0,0,0,0,0c0,0,0,0,0,0c-0.1,0.1-0.1,0.2,0,0.2c0,0,0,0,0,0c0,0.2-0.3,0.2-0.3,0
		c-0.1,0.2,0.1,0.4,0.3,0.3c0,0,0,0,0,0c0,0,0,0.1,0.1,0.1c0,0,0,0,0,0c0,0,0,0,0,0c0,0.1,0,0.1,0.1,0.1c0,0,0-0.1,0-0.1
		c0,0,0,0.3,0.3,0.5c0,0.2,0.2,0.3,0.3,0.2c0,0.1,0.1,0.2,0.1,0.2c0,0-0.4,0-0.5,0c-0.1,0-0.2,0.1-0.3,0.1l0,0c0,0,0,0,0,0
		c-0.1,0-0.2,0-0.2-0.1c0,0,0-0.1-0.1-0.2c0,0-0.1-0.1-0.1-0.1c0,0,0,0-0.1,0c-0.1-0.1-0.2-0.1-0.2,0c0,0,0.1,0,0.1,0.1
		c0,0,0,0.1,0,0.1c0,0,0,0.1,0.2,0.2c0,0,0,0,0,0c0,0-0.1,0-0.1,0c-0.1-0.1-0.1-0.2-0.2-0.1c0,0,0,0-0.1,0c0,0,0,0,0,0
		c-0.1,0-0.2,0.1-0.2,0.2c0,0,0-0.1,0.1-0.1c0,0,0,0.1,0,0.1c0,0.1,0.1,0.2,0.3,0c0,0,0,0,0,0c-0.1,0.1-0.2,0.2-0.1,0.3c0,0,0,0,0,0
		c0,0,0,0,0,0c0,0.1,0.1,0.2,0.2,0.2c0,0-0.1-0.1-0.1-0.2c0,0,0.1,0,0.1,0c0.1,0,0-0.2,0.1-0.2c0,0,0,0,0,0c0,0.1,0,0.2,0.2,0.2
		c0.1,0,0.2-0.1,0.2-0.2c0,0,0,0,0,0c0,0,0.1,0.1,0.1,0.1c0,0,0.1-0.1,0.1-0.1c0,0.1,0,0.1-0.1,0.2c0,0,0.2-0.1,0.2-0.2
		c0,0,0,0,0,0.1c0,0,0,0,0,0c0,0,0.1,0,0.2,0c0,0,0,0,0,0c0,0,0,0.1,0,0.1c0,0,0-0.1,0.1-0.1c0,0,0,0.1,0.1,0.2
		c0-0.3,0.2-0.2,0.4-0.3c0,0,0,0,0,0c0,0,0,0.1-0.1,0.1c0.1,0,0.3-0.1,0.3-0.2c0,0,0.1-0.2,0.2-0.5c0,0,0.1,0,0.1,0
		c0.3,0,0.4-0.2,0.6-0.2c-0.1,0.1-0.1,0.3-0.1,0.4c0,0.1,0.2,0.3,0.2,0.3c0,0,0,0,0,0c-0.1,0-0.2,0-0.2,0.1
		c-0.2,0.1-0.2-0.3-0.4-0.2c0,0,0,0-0.1,0c-0.1,0-0.2,0.1-0.2,0.2c0,0,0.1-0.1,0.1-0.1v0c0,0,0,0.1,0.1,0.1c0,0,0.1,0,0.1,0
		c0,0,0,0,0,0c0,0.1-0.3,0-0.2,0.2c0,0,0,0.1,0,0.1c0,0.1,0.1,0.1,0.2,0.1c0,0-0.1-0.1-0.1-0.1c0,0,0,0,0.1,0c0,0,0,0,0,0
		c0,0,0,0,0,0c0,0,0,0,0,0c0,0,0,0,0,0.1c0,0,0,0.1,0,0.1c0,0.1,0.1,0.2,0.2,0.1c0,0-0.1,0-0.1-0.1c0,0,0.1,0,0.1,0c0,0,0,0,0-0.1
		c0,0,0,0,0,0c0,0,0,0,0.1,0c0,0,0,0,0,0c0,0,0.1,0.1,0.2,0.1c0.2,0,0-0.2,0.1-0.2c0,0,0.1,0,0.1,0c0.1,0,0.2,0.1,0.2,0
		c0-0.1,0-0.3-0.1-0.3c-0.1,0,0.1-0.5-0.3-0.7c0.2,0,0.7,0.1,0.8,0c0.2,0,0.4,0.1,0.4,0.2c0,0,0,0.1,0,0.1c-0.1,0.1-0.1,0.1-0.2,0.2
		l0,0c0,0-0.1-0.1-0.1-0.1c-0.1,0-0.1,0-0.1,0c-0.1,0-0.2,0-0.2,0.1c0,0,0.1,0,0.2,0c0,0,0,0,0,0c0,0,0,0.1,0,0.1h0h0c0,0,0,0,0,0
		c0,0,0,0,0,0c-0.1,0-0.2,0-0.2,0.1c0,0,0,0,0,0.1c-0.1,0-0.1,0.1,0,0.2c0,0,0-0.1,0.1-0.1c0,0,0,0,0,0c0,0,0.1-0.1,0.2,0
		c0,0,0,0,0,0c-0.1,0-0.2,0.1-0.1,0.2c0,0,0,0,0,0.1c0,0.1,0,0.2,0.1,0.2c0,0,0-0.1,0-0.1c0,0,0.1,0,0.1,0c0.2-0.1,0.1-0.2,0.1-0.2
		c0.1-0.1,0.1,0.1,0.3,0c0,0,0-0.1,0-0.1c0,0,0,0,0,0v0c0,0,0.1,0.1,0.1,0c-0.1-0.1,0-0.1,0.1-0.2c0,0,0,0,0,0c0,0,0.1,0,0.2-0.1
		c-0.1,0-0.3-0.1-0.1-0.1c0.2-0.1,0.2-0.2,0.1-0.2c-0.1-0.2-0.4-0.2-0.4-0.4c0.1,0,0.2,0,0.2,0c0.8,0,1.4-0.2,1.3-0.5
		c0-0.6-2.5,0-2.5-0.4C90.9,62.9,91,62.8,91.2,62.8"/>
	<path d="M50.9,19.4c0-0.3-0.3-0.6-0.6-0.6c-0.3,0-0.6,0.3-0.6,0.6c0,0.3,0.3,0.6,0.6,0.6C50.6,20,50.9,19.7,50.9,19.4"/>
	<path d="M50.7,17.8c0-0.3-0.3-0.6-0.6-0.6c-0.3,0-0.6,0.3-0.6,0.6c0,0.3,0.3,0.6,0.6,0.6C50.4,18.4,50.7,18.1,50.7,17.8"/>
	<path d="M51,17c0.3,0,0.6-0.3,0.6-0.6c0-0.3-0.3-0.6-0.6-0.6c-0.3,0-0.6,0.3-0.6,0.6C50.4,16.8,50.7,17,51,17"/>
	<path d="M52.6,16.9c0.3,0,0.6-0.3,0.6-0.6c0-0.3-0.3-0.6-0.6-0.6c-0.3,0-0.6,0.3-0.6,0.6C52,16.7,52.3,16.9,52.6,16.9"/>
	<path d="M59.5,15.8c0.2,0.2,0.6,0.2,0.9,0c0.2-0.2,0.2-0.6,0-0.8c-0.2-0.2-0.6-0.2-0.9,0C59.3,15.2,59.3,15.6,59.5,15.8"/>
	<path d="M59.4,14.5c0.2-0.2,0.2-0.6,0-0.9c-0.2-0.2-0.6-0.2-0.9,0c-0.2,0.2-0.2,0.6,0,0.9C58.7,14.8,59.1,14.8,59.4,14.5"/>
	<path d="M57.8,14.3c0.2-0.2,0.2-0.6,0-0.9c-0.2-0.2-0.6-0.2-0.9,0c-0.2,0.2-0.2,0.6,0,0.9C57.1,14.5,57.5,14.5,57.8,14.3"/>
	<path d="M56.4,15.3c0.2-0.2,0.2-0.6,0-0.8c-0.2-0.2-0.6-0.2-0.9,0c-0.2,0.2-0.2,0.6,0,0.9C55.8,15.5,56.1,15.5,56.4,15.3"/>
	<path d="M52.5,14.5l0.5,1.1l0.6-0.7c0,0,0,0,0.1,0c0.1,0.4,0.1,1,0.1,1.3c0,0.4,0.3,0.8,0.8,0.8c0.4,0,0.8-0.3,0.8-0.8
		c0-0.3-0.2-0.5-0.4-0.7c-0.3-0.2-0.6-0.5-0.8-0.8c0,0,0-0.1,0-0.1l1,0.1l-0.4-1.1L54,14.2c0,0,0,0,0,0l-0.1-1.1l-1.1,0.4l0.7,0.8
		c0,0,0,0.1,0,0.1L52.5,14.5"/>
	<path d="M59.5,16.3c0.2,0.4,0.3,0.5,0.3,0.8c-0.2-0.1-0.4-0.3-0.6-0.6l0.1,1.4c0.2-0.3,0.3-0.4,0.5-0.5c0,0.9-0.4,1.3-0.7,1.4
		c-0.4,0.1-0.7-0.2-0.7-0.5c-0.1-0.4,0.3-0.7,0.6-0.3c0.1-0.8-0.6-0.8-0.9-0.5c0.4-0.8,0.2-1.4-0.5-1.8c-0.5,0.8-0.3,1.3,0.3,1.8
		c-0.6-0.3-1.1,0.2-0.6,0.8c0.1-0.5,0.6-0.4,0.7,0c0.1,0.4-0.3,0.8-0.9,1c-0.9,0.3-1.1-0.3-1.4-0.8c0.2-0.1,0.6-0.1,1.1,0.2
		l-0.4-1.4c-0.2,0.5-0.5,0.7-0.8,0.8c0-0.4,0.3-1.2,0.3-1.2l-1.7,0.7c0,0,0.8,0.4,1,0.7c-0.3,0.1-0.7,0.2-1.2,0l0.7,1.3
		c0.1-0.6,0.4-0.9,0.6-1c0.2,0.5,0.4,1.1-0.4,1.5c-0.6,0.3-1.1,0.2-1.3-0.1c-0.2-0.4,0-0.8,0.5-0.5c-0.1-0.8-0.8-0.8-1-0.2
		c0-0.8-0.2-1.3-1.1-1.5c-0.2,0.8,0.1,1.3,0.9,1.6c-0.5-0.1-1,0.4-0.3,1c0-0.5,0.4-0.6,0.7-0.2c0.2,0.2,0.1,0.6-0.2,0.8
		c-0.3,0.2-0.8,0.2-1.5-0.5c0.2-0.1,0.4,0,0.7,0l-0.9-1.1c0,0.4,0,0.7-0.1,0.8c-0.2-0.2-0.3-0.4-0.3-0.8l-0.7,0.6
		c0.6,0.4,1.4,1,2.3,2.2c0.9-0.6,2.6-1.4,3.7-1.8c1.1-0.4,2.8-1,3.9-1.3c-0.2-1.5-0.1-2.5,0.1-3.2L59.5,16.3"/>
	<path d="M61.4,24.3c-0.8,0.7-2,0.1-2.5-0.8c1.2-0.5,2.5-1,3.4-1.6C61.5,23.2,62.1,23.8,61.4,24.3 M61.2,33.1
		c-1.1,0.5-1.9-0.5-2.1-1.1c-0.2-0.7-0.4-1.2-0.1-1.4c0.5-0.5,0.6-0.8,0.3-1.4c-0.3-0.7-1-0.4-1.8-0.2c0.4-0.6,0.4-1.1-0.1-1
		c-0.6,0.1-0.6,1-0.9,0.9c-0.3-0.1-0.1-0.6-0.1-0.9c0-0.4,0.3-0.5,0.7-0.7l3.1-1.2c0.4-0.1,0.7-0.2,1,0.1c0.2,0.2,0.7,0.5,0.5,0.8
		c-0.2,0.3-0.8-0.4-1.3,0c-0.4,0.3,0,0.6,0.6,0.8c-0.7,0.4-1.4,0.7-1.2,1.4c0.2,0.6,0.6,0.8,1.2,0.8c0.4,0,0.6,0.5,0.9,1.1
		C62.3,31.5,62.4,32.6,61.2,33.1 M55.3,26.7c-0.8,0.1-0.8-0.7-2.3-1.1c1.1-0.2,2.4-0.7,3.6-1.2C56.7,25.4,56.3,26.6,55.3,26.7
		 M72.8,54.7c0.2-0.6-0.9-1.4-1.1-2.3c-0.1-0.9,0-1.8-1.1-3.1c-1-1.2-4.7-5.1-5.7-6.3c0.3,0,0.9-0.2,1.6,0.5
		c0.4,0.4,1.2,1.1,1.9,1.8c1-2.4,2.1-4.3,3.8-6.2c0.2-0.2,0.4-0.5,0.7-0.7c-0.6,0.2-1.6,0.3-2.1,0.7c0-1.1,0-1.9-0.7-2.6
		c0.3-1.5,0-3.3-3.3-5.5c1.7,0.4,2.7,1.9,4,0.8c-1.2,0-1.2-2.6-5.4-4.7c1.6,0,2.9,2.6,4.7,1.1c-1.8-0.2-2.3-3.3-5.5-4.3
		c1.1,0.1,2.2,0.7,3.2-0.6c-1.1,0.3-1.7-0.8-2.9-0.8c0.4-1.4,0.3-2.2-0.1-3.2c-0.8,0.1-1.7,0.3-2.3,0.8c-0.1-0.7-0.9-0.8-1.6-0.7
		c0,0.3,0.2,0.8-0.2,0.9c-0.6,0.1-2.4,0.6-3.9,1.2c-1.5,0.6-3.1,1.6-3.6,1.9c-0.3,0.2-0.5-0.3-0.7-0.5c-0.5,0.4-1,1-0.6,1.6
		c-0.8,0.1-1.7,0.3-2.5,0.9c0,0.9,0.8,1.9,1.9,2.4c-2,1.9-0.2,3.7-1.9,5.4c2.4,0.1,2-3.3,3.2-3.8c-0.1,2.4-1.4,2.8-1.4,5.3
		c0,1.4,0.8,2.8,0.1,3.7c2-0.6,1.5-5,2.8-6.4c0.2,0.8,0.1,1.5-0.2,2.3c-0.7,2.1,0.1,4.9-1,5.9c2.1-0.2,2.3-3.5,4-4.7
		c-1.5,3-3,9.3-5.1,12.5c-3.5,4.8-5.6,10.6-8.8,10.6c-1.4,0-2.5-0.9-2.5-2.7c0-5.4,9.3-9.1,9.3-14.9c0-2.6-2.1-3.5-3.4-3.5
		c-0.9,0-1.9,0.4-2.8,1.2c-0.4-0.2-0.8-0.2-1.1-0.2c-3.3,0-2.4,5.9-5.3,5.8c1.1,0.6,3.1-0.6,4.2-2.3c-0.5,3.8-6,2.8-5.6,7.4
		c0.8-3.6,9.5-3.1,9.5-8.5c0-0.6-0.3-1.1-0.8-1.5c0.7-0.4,1.3-0.6,1.9-0.6c1,0,2,0.8,2,2.3c0,4.8-9.2,8.9-9.2,14.8
		c0,1,0.3,1.8,0.8,2.5c-0.6,0.3-1.3,0.1-1.9-0.5c-0.1,1.5,2.1,2.5,3.5,1.7c0.3,0.1,0.6,0.2,1,0.2c-0.4,1.1-1.8,1.5-2.6,1.4
		c2.3,1.8,6.2-0.6,6-2.6c1.8-1.4,2.9-3.9,4.2-5.6c-0.1,0.4-0.2,0.8-0.2,1.1c-1.3,2.4-2.6,4.6-2.9,7.7c-0.3,2.6-1.6,5-3.5,5
		c-0.4,0-1.1-0.5-1.4-0.3c-0.6,0.5,0,1,0,1.5c0,0.8-1.5,1.5-1.5,3.8c0,1.1,0.6,2.3,0.4,3c0.6-0.3,1.4-1.3,1.7-2.6
		c0.6,3.1-1.3,2.9,0.1,5.7c0.2-0.9,1.1-1.3,1.6-0.9c0.6,0.4,0.3,0.6-0.1,1.1c-0.4,0.4-0.8,2.4,1.1,2.3c-0.3-0.2-0.4-0.8,0.6-1
		c1.3-0.3,1.7,0.3,3,0.3c0.8,0,1.1-1.1,1.7-1.1c0.7,0,0.7,0.5,0.4,0.9c1.1-0.3,1.3-0.9,1.3-1.5c0-0.6-0.5-1-0.1-1.2
		c0.4-0.2,1.6,0,1.1,1c0.6-0.1,1-0.6,1-1.4c0-0.8-0.9-1.2-1.7-1.1c-0.1-0.5-0.9-0.8-1.5-0.8c-1.5,0-1.3,1.2-2.3,1.2
		c-1.7,0-3.3-2.2-3.3-5.8c0-1.9,2.1-2.4,3.6-3.1c1.5-0.6,4.1-2.2,5.6-4.9c1.2-2,1.3-4.3,1.1-6.9c2.1,1.2,2.3,2.9,2.3,4.2
		c0,1.6-0.8,2.3-1.5,2.6c-0.6,0.3-0.7,0.2-0.8,0.5c-0.1,0.4,0.2,0.7,0.4,0.8c0.8,0.4,0.6,1.1,0.8,1.9c0.2,0.8,0.9,2,2.1,2.9
		c0.1-0.5,0.1-1.3,0-2.3c1.6,0.8,0.3,4,3.4,4c-0.6-0.3-0.4-1.2-0.1-1.3c0.3-0.1,0.7,0.2,1.4,1c0.6,0.8,0.4,0.8,1.9,0.8
		c1.5,0,0.8-0.5,1.6-0.5c0.8,0,0.7,0.9,0.3,1.6c1.3-0.4,1.7-1.4,1.3-2.4c1.2-0.6,1.8,0.3,1.9,0.9c1.1-1.1,0-2.5-0.9-2.6
		c0-0.4-0.4-0.9-0.8-0.9c-0.5,0-1-0.1-1.5,0c-0.5,0-0.8,0.8-1.5,0.8c-2,0-5.8-3.5-5.8-5.1c0-1.5,3.7-2.5,3.7-4.8
		c0-3.1-3.1-4.2-5.6-6.2c0.9-1,3.6-1.3,5.1-0.5c0.2-0.9,0.7-0.6,0.9-2.1c0.5,1.3,0,2.4,0.5,3c0.4-0.6,1.5-0.5,1.5-2.2
		c0.3,1-0.4,2.6,0.3,3.3c0.1-0.8,0.6-1,1-1s0.6,0.2,0.6,0.7c0,1.2-1.5,0.7-1.5,2.1c0,0.6,0.7,0.8,0.7,1.2c0,0.4-0.6,1-1.4,0.5
		c0.2,0.5,0.7,1,1.4,1c0.7,0,1.4-0.5,1.7-1.2c0.4,0.9,0.1,1.9-0.6,2c0.7,0.3,2.3,0,2.1-2c0.9,0.2,1.4,0.8,0.8,1.9
		c0.7-0.2,1.4-0.5,1.4-1.3C73.1,55.7,72.5,55.5,72.8,54.7"/>
	<path d="M132.5,69.6c0-1.1,0.9-1.9,1.9-1.9c1.1,0,1.9,0.9,1.9,1.9c0,1.1-0.9,1.9-1.9,1.9C133.4,71.6,132.5,70.7,132.5,69.6
		 M131.8,69.6c0,1.4,1.2,2.6,2.6,2.6c1.4,0,2.6-1.2,2.6-2.6c0-1.4-1.2-2.6-2.6-2.6C133,67,131.8,68.2,131.8,69.6"/>
	<path d="M123.3,74.4c-0.7-0.1-1.3-0.7-1.2-1.2c0-0.3,0.2-0.4,0.4-0.5c0.3-0.2,0.7-0.3,1.2-0.2c0.7,0.1,1.2,0.6,1.2,1.1
		c0,0,0,0.1,0,0.1C124.7,74.2,124,74.5,123.3,74.4 M122.1,72c-0.3,0.2-0.6,0.6-0.6,1c-0.1,0.5,0.1,0.9,0.4,1.3
		c0.3,0.4,0.8,0.6,1.3,0.7c0.5,0.1,1,0,1.5-0.2c0.5-0.2,0.7-0.6,0.8-1.1c0.2-0.9-0.6-1.8-1.7-2C123.2,71.6,122.6,71.7,122.1,72"/>
	<path d="M107.6,37c0-0.3,0.2-0.7,0.6-1c0.3-0.2,0.7-0.3,1-0.3c0.1,0,0.3,0.1,0.5,0.3c0.1,0.2,0.1,0.4,0.1,0.5
		c0,0.3-0.2,0.6-0.5,0.9c-0.5,0.4-1.2,0.4-1.5,0C107.7,37.3,107.6,37.2,107.6,37 M107.8,35.5c-0.8,0.6-1,1.7-0.5,2.4h0
		c0.5,0.7,1.6,0.7,2.4,0.1c0.4-0.3,0.7-0.8,0.8-1.3c0-0.4,0-0.7-0.3-1c-0.2-0.3-0.5-0.5-0.9-0.5C108.8,35,108.2,35.1,107.8,35.5"/>
	<path d="M120.1,71.3L120.1,71.3L120.1,71.3 M120.1,70.7L120.1,70.7c-0.3,0-0.5-0.1-0.6-0.3c-0.3-0.3-0.4-0.7-0.4-1.1
		c0-0.4,0.2-0.8,0.4-1.1c0.1-0.1,0.3-0.3,0.6-0.3c0.6,0,1,0.6,1,1.4c0,0.4-0.2,0.8-0.4,1.1C120.5,70.5,120.3,70.7,120.1,70.7
		 M119.1,67.7c-0.4,0.4-0.6,1-0.6,1.6v0.1c0,0.6,0.2,1.2,0.6,1.5c0.3,0.3,0.7,0.5,1.1,0.5c0.4,0,0.8-0.2,1.1-0.4
		c0.4-0.4,0.6-1,0.6-1.6c0-0.5-0.1-1-0.4-1.4c-0.3-0.4-0.7-0.6-1.2-0.7C119.7,67.3,119.4,67.4,119.1,67.7"/>
	<path d="M106.8,49.2c-0.7-0.3-1-1-0.8-1.5c0.1-0.2,0.3-0.4,0.5-0.4c0.4-0.1,0.8-0.1,1.2,0.1c0.4,0.2,0.7,0.5,0.8,0.8
		c0.1,0.2,0.1,0.4,0,0.6c-0.1,0.2-0.3,0.4-0.5,0.4C107.7,49.4,107.2,49.4,106.8,49.2 M106.3,46.7c-0.4,0.1-0.7,0.4-0.9,0.8
		c-0.4,0.8,0.1,1.9,1.1,2.4c0.6,0.3,1.2,0.3,1.7,0.1c0.4-0.1,0.7-0.4,0.9-0.8c0.2-0.3,0.2-0.8,0-1.2c-0.2-0.5-0.6-1-1.2-1.2
		C107.4,46.5,106.8,46.5,106.3,46.7"/>
	<path d="M125.2,58.5c-0.4,0.6-1.2,0.8-1.6,0.5c-0.5-0.3-0.5-1.1-0.1-1.7c0.4-0.6,1.2-0.8,1.6-0.5C125.6,57.2,125.6,57.9,125.2,58.5
		 M122.1,63.4c-0.4,0.6-1.2,0.8-1.6,0.5c-0.5-0.3-0.5-1.1-0.1-1.7c0.4-0.6,1.1-0.8,1.6-0.5C122.5,62,122.5,62.8,122.1,63.4
		 M111.6,36.8c0.4-1.1,1-3.4,1-3.4l1.2,0.5c-0.3,0.1-0.8,0.5-1.1,0.8c0.3,0.1,0.7,0.1,1.1-0.1l-0.5,1.2c-0.1-0.2-0.4-0.6-0.8-0.7
		c-0.2,1,0.4,1.3,0.8,1.5c0.7,0.4,1.2,0.4,1.4,0.1c0.2-0.4-0.2-1-0.9-0.7c-0.1-0.6,0.3-1,0.7-1c0.3,0,0.6,0.3,0.7,0.7
		c0-1,0.4-1.8,1.3-2.1c0.3,1,0.1,1.6-0.7,2.3c0.4-0.2,0.8-0.1,1,0.1c0.2,0.3,0.1,0.8-0.4,1.1c-0.1-0.6-0.9-0.7-1.1-0.3
		c-0.2,0.4,0.1,0.8,0.8,1.2c0.8,0.4,1.4,0.2,1.8-0.5c-0.3-0.1-0.7,0-1.1,0.2l0.8-1.5c0,0.2,0.2,0.6,0.5,0.9c0.1-0.3,0.3-0.9,0-1.4
		l1.7,1c-0.6,0.1-1,0.5-1.2,0.8c0.4,0.1,0.8,0.1,1,0l-0.9,1.4c0-0.5-0.2-0.9-0.4-1.1c-0.4,0.7-0.3,1.4,0.5,1.8
		c0.7,0.4,1.2,0.5,1.4,0.1c0.3-0.4-0.2-1-0.8-0.8c0-0.6,0.3-0.9,0.7-0.9c0.3,0,0.6,0.4,0.6,0.8c0.2-1,0.7-1.6,1.7-1.8
		c0.2,1-0.2,1.7-1.1,2.2c0.4-0.1,0.8-0.1,0.9,0.2c0.2,0.4,0.1,0.8-0.5,1.1c-0.1-0.7-0.8-0.8-1.1-0.4c-0.2,0.3,0.1,0.7,0.8,1.2
		c0.4,0.3,1,0.6,1.7-0.1c-0.2-0.3-0.8-0.3-1-0.3l0.8-1c0,0.4,0.2,0.8,0.5,1c0.1-0.5,0.2-1,0.1-1.4l1,0.8c0,0-1.6,1.7-2.4,2.6
		L111.6,36.8z M124.3,51.3c0-0.2,0.1-0.4,0.2-0.6c0.2-0.2,0.4-0.2,0.6-0.2c0.4,0,0.8,0.2,1.1,0.5c0.3,0.3,0.5,0.7,0.5,1.1
		c0,0.2-0.1,0.4-0.2,0.6l0,0c-0.2,0.2-0.4,0.2-0.6,0.2c-0.4,0-0.8-0.2-1.1-0.5C124.5,52.1,124.3,51.7,124.3,51.3 M129,72.8
		c0.1-0.4,0.3-0.7,0.7-1c0.4-0.2,0.8-0.3,1.2-0.3c0.2,0,0.4,0.1,0.5,0.4v0c0.2,0.2,0.1,0.5,0.1,0.6c-0.1,0.4-0.3,0.7-0.7,1
		c-0.6,0.4-1.4,0.4-1.7-0.1C129,73.2,129,72.9,129,72.8 M106.8,40.4c0,0.4-0.2,0.7-0.4,0.9c-0.1,0.1-0.3,0.2-0.5,0.2
		c-0.4,0-0.8-0.5-0.8-1.1c0,0,0-0.1,0-0.1c0-0.4,0.2-0.7,0.4-0.9c0.1-0.1,0.3-0.2,0.5-0.2c0.2,0,0.4,0.1,0.5,0.3
		C106.7,39.7,106.8,40.1,106.8,40.4 M113.7,26.3c0.4-0.7,0-1.8,1.3-1.8c0.6,0,1.2,0.6,1.9,0.9C115.7,25.5,114.6,25.8,113.7,26.3
		 M133.7,44c0.8,2.3,2.5,3.2,3.8,2.6c-2.9-0.3-0.5-5.3-4.2-5.3c-0.2,0-0.4,0-0.6,0.1c-0.6-0.7-1.3-0.9-2.4-0.9
		c-1.6,0-4.3,1.5-4.3,4.6c0,6.7,7.8,7.3,7.8,13.3c0,1.7-1.3,2.8-2.8,2.8c-1.3,0-2.4-1.5-3.5-3.8c-0.5-1.1-1.7-2.6-2.9-4.2
		c0.4,0.3,0.8,0.4,1.2,0.4c0.4,0,0.8-0.1,1.1-0.4c0.3-0.3,0.4-0.6,0.5-1.1v-0.1c0-0.5-0.2-1.1-0.6-1.5c-0.4-0.4-1-0.7-1.5-0.7
		c-0.4,0-0.8,0.1-1.1,0.4c-0.3,0.3-0.4,0.6-0.5,1.1v0.1c0,0.2,0,0.5,0.1,0.7c-1.7-2.2-3.2-4.3-3.2-5.5c0-1,0.7-2,1.6-3.1
		c0,0,0.3,0.2,0.3,0.2l0.2-0.3c0.3-0.3,1-1.1,2.3-2.5l0.1-0.1l0,0l0.3-0.3l-0.8-0.7c0.2-0.5,0.4-1.1,0.6-1.6
		c0.3,1.1,0.8,1.8,1.6,1.5c-0.5-1.1,0.5-2.6-0.2-5.3c0.6,1.1,1.6,1.6,2.2,1.4c-1.7-1.5,0.5-3.7-1.7-7c0.7,0.3,1.2,0.1,1.6-0.3
		c-2.1-0.3-1.1-2.9-4.7-3.8c0.9-0.2,1.4-0.7,1.3-1.2c-1,0.7-1.8-1.3-4.9-1.2c-0.2-1.2-1.3-2.4-2.5-3c0.2,0.9,0,1.7-0.2,2.4l-10.2-10
		c-0.3-0.3-0.5-0.3-0.5-0.2c-0.1,0.1-0.1,0.3,0.1,0.5l8.7,11c-0.7,0.2-1.3,0.5-2,0.8c-0.4,0.2-0.8,0.6-0.8,1.1
		c-1.6,0.8-3,1.8-3.8,2.4c-0.5,0.5-1,0.6-0.5,1.7c0.2,0.4-0.4,1.5,0.9,0.7c0.8-0.5,2.7-1.5,3-0.9c0.1,0.3-0.8,0.8-1.4,1
		c-0.6,0.2-1.3,0.7-1.2,1c0.1,0.2,0.6,0,0.6,0.2c0,0.3,0.2,0.5,0.5,0.5c0.3,0,0.6-0.5,0.8-0.4c0.2,0.2-0.1,1.4-0.3,1.7
		c1-0.1,1.6-1.1,1.7-1.8c0-0.7,0.2-0.9,0.4-1c0.2-0.1,0.3,0.8,0.1,1.3c0.5-0.1,1.1-0.8,1-2.1c0.3-0.2,0.5-0.4,0.7-0.4
		c0.3,0,1,0.9,1.9,0.9c1.7,0,2.7-1.4,2.8-2.1c0.1-0.5,0-1.1-0.2-1.4c0.6,0.5,0.8,1.3,0.8,1.9c0,2.5-4.3,3.6-6.1,5.3
		c-0.1,0.1-0.1,0.1-0.2,0.2l-2-0.8l-0.1,0.4c0,0,0,0.1-0.1,0.4c-0.2,0.7-0.7,2.1-0.9,3c0,0-0.1,0.3-0.1,0.3l0.2,0.1
		c-1.2,1.6-2.2,3.4-2.4,5.2c-0.5-0.5-1-0.9-1.5-1.4c0.1-0.2,0.1-0.4,0.1-0.6c0-0.5-0.1-1.1-0.5-1.4c-0.3-0.3-0.6-0.5-0.9-0.5
		c-0.4,0-0.7,0.1-1,0.4c-0.1,0.1-0.1,0.1-0.2,0.2l-0.2-0.2c-0.7-0.5-1.5-1.1-2-1.7c-0.2-0.2-0.4-0.4-0.9-0.4c-0.2,0-0.6,0-0.9,0
		c-0.3,0-0.5,0.2-0.8,0.5c-0.2,0.1-0.6,0.5-1.2,0.9c0.2,0.3,0.5,0.5,0.7,0.8c0.1,0.1,0.3,0.3,0.4,0.5c0.1-0.1,0.3-0.2,0.4-0.3
		c0.2-0.2,0.5-0.2,0.8-0.2c0.3,0,0.6,0.2,0.9,0.6c0.2,0.3,1.8,2.4,3.2,3.9c-0.2,0-0.3,0.1-0.4,0.2c-0.6,0.2-1.9,0.2-2.5,0.1
		c-0.6,0-0.7-0.2-1.1,0.4c-0.2,0.2-0.3,0.5-0.5,0.8c-0.2,0.2-0.3,0.5,0.1,1.2c0.6,1,2.1,3.7,2.6,4.9c0.5,1.2,1.1,1.4,2,1.8
		c1,0.4,2.6,1.3,2.8,1.5l0.1-0.9c-0.3-0.3-1.2-0.6-1.5-0.7c-0.3-0.1-0.4-0.3,0-0.3c0.4,0,1.6,0.4,2.4,0.7c-0.2-0.9-1.1-1.9-1.6-2.5
		c-0.7-0.2-1.4-0.2-1.7,0c0,0.2-0.1,0.4-0.4,0.4c-0.3,0-0.4-0.2-0.4-0.5c0.1-0.3,0.5-0.4,0.4-0.9c-0.1-0.5-0.7-0.6-1.1-0.6
		c-0.6-0.8-1.3-2.1-1.6-2.6c-0.3-0.5-0.1-0.8,0.1-1c0.5-0.4,1.5,0.2,3.6,0.3c0.7,0,1.6,0.1,2.6,0.1c0.3,2.4,1.2,4.7,4.6,5.5
		c1.6,0.4,3.3,1.6,3.9,3.2c-6.7-0.1-7.7,2.5-7.7,4.9c0,2.8,2.4,2.6,2.4,4.7c0,1.8-5.6,2.6-7.3,2.8c-1.4,0.2-2.3,0.5-3,1.2
		c-0.7,0.7-1.4,1.4-2.6,2.6c0,0,0.5,0.1,1.1,0.1l0.9-1.2c0.3-0.4,0.5-0.8,0.7-0.7c0.2,0,0.1,0.3-0.2,0.8l-0.8,1.3
		c3.3,0.2,3.5-1,3.5-1.5c0-0.5-0.8-0.8-0.3-1.2c0.5-0.3,0.9-0.1,1.3,0.3c0.4,0.4,0.5,0.8,1.4,0.5c0,0,7.2-3,8.1-3.4
		c0.8-0.4,0.6-0.7,0.1-1.1c-0.5-0.4-0.6-1.2-0.6-1.9c0-2.2,1.3-2.8,3.6-2.8c0,0.4-0.1,0.7-0.1,1c0,3.4,5.1,6.7,6.5,6.7
		c0.6,0,1.5-0.5,1.5,1.6c0,1.5,0.3,2.6,0.1,4.3c-0.3,1.7-0.8,2-1.8,2.7c-1,0.7-2,3-2.5,3.5c0.5,0.3,1,0.3,1.4-0.8
		c0.3-0.9,0.7-1.6,1.1-1.8c-0.4,1-0.7,2.5-0.9,3c1.3,0.2,3.4-1,3.4-1.9c0-0.9-0.7-0.8-0.7-1.5c0-0.3,0.3-0.6,0.7-0.6
		c0.5,0,0.9,0.4,1,0.6c0.6-0.3,0.9-0.9,0.9-2.2c0-0.5,0-1.1-0.1-1.6c0,0.1,0.1,0.1,0.1,0.2c0.3,0.4,0.7,0.6,1.2,0.7
		c0.5,0,1-0.1,1.4-0.4c0.5-0.3,0.9-0.8,1-1.4c0-0.1,0-0.2,0-0.3c0-0.3-0.1-0.6-0.2-0.8c-0.2-0.3-0.6-0.5-1-0.6
		c-0.5-0.1-1.1,0-1.7,0.4c-0.5,0.3-0.8,0.8-1,1.3c-0.1-1.8-0.2-3.6-0.2-4.3c0.1-1,0.1-1.5-0.2-1.7c-0.3-0.2-0.7,0.4-1.2,0.4
		c-0.5,0-2-1.4-2-2.9c0-1.5,1.6-3.4,1.5-5.4c0-0.6,0.4-1,0.6-0.4c0.3,0.7,0.8,1.6,1.4,2.4c-0.4,2.5,2.4,5,4.6,3.2
		c-1.1,0.2-1.9-0.8-2.4-1.8c0.2,0,0.4,0.1,0.6,0.1c0.1,0,0.2,0,0.3,0c0.8,1,3.3,0.9,4-1.6c-0.4,0.5-1.4,0.9-2,0.8
		c1-0.7,1.5-2,1.5-3.3c0-6.4-7.8-7.2-7.8-13c0-2.2,1.9-3.6,3.2-3.6c0.5,0,0.9,0.2,1.2,0.4c-0.5,0.5-0.8,1.3-0.7,2.2
		c0.2,4.6,7.7,4.4,7.8,6.6C139.5,47.4,133.9,48.5,133.7,44"/>
</g>
</svg>
