<svg width="40" height="40" viewBox="0 0 40 40" fill="none" xmlns="http://www.w3.org/2000/svg">
<path d="M39 20C39 30.4934 30.4934 39 20 39C9.50659 39 1 30.4934 1 20C1 9.50659 9.50659 1 20 1C30.4934 1 39 9.50659 39 20Z" stroke="white" stroke-width="2" stroke-miterlimit="10"/>
<g clip-path="url(#clip0_134_1008)">
<path d="M20.0022 12.6217C22.4058 12.6217 22.6917 12.6307 23.6389 12.6754C24.5145 12.7156 24.9926 12.863 25.3098 12.9836C25.7297 13.1489 26.029 13.341 26.3462 13.6582C26.6634 13.9754 26.8555 14.2748 27.0208 14.6947C27.1459 15.0119 27.2889 15.4899 27.3291 16.3656C27.3738 17.3127 27.3827 17.5987 27.3827 20.0022C27.3827 22.4058 27.3738 22.6917 27.3291 23.6389C27.2889 24.5145 27.1415 24.9926 27.0208 25.3098C26.8555 25.7297 26.6634 26.029 26.3462 26.3462C26.0335 26.659 25.7297 26.8555 25.3098 27.0208C24.9926 27.1459 24.5145 27.2889 23.6389 27.3291C22.6917 27.3738 22.4058 27.3827 20.0022 27.3827C17.5987 27.3827 17.3127 27.3738 16.3656 27.3291C15.4899 27.2889 15.0119 27.1415 14.6947 27.0208C14.2748 26.8555 13.9754 26.6634 13.6582 26.3462C13.341 26.029 13.1489 25.7297 12.9836 25.3098C12.8585 24.9926 12.7156 24.5145 12.6754 23.6389C12.6307 22.6917 12.6217 22.4058 12.6217 20.0022C12.6217 17.5987 12.6307 17.3127 12.6754 16.3656C12.7156 15.4899 12.863 15.0119 12.9836 14.6947C13.1489 14.2748 13.341 13.9754 13.6582 13.6582C13.971 13.3455 14.2748 13.1489 14.6947 12.9836C15.0119 12.8585 15.4899 12.7156 16.3656 12.6754C17.3127 12.6307 17.5987 12.6217 20.0022 12.6217ZM20.0022 11C17.5585 11 17.2502 11.0089 16.2897 11.0536C15.3336 11.0983 14.6768 11.2502 14.105 11.4736C13.5153 11.7014 13.0104 12.0097 12.5101 12.5101C12.0097 13.0104 11.7014 13.5108 11.4736 14.105C11.2502 14.6768 11.0983 15.3336 11.0536 16.2897C11.0089 17.2502 11 17.554 11 20.0022C11 22.4505 11.0089 22.7543 11.0536 23.7148C11.0983 24.6709 11.2502 25.3276 11.4736 25.8995C11.7014 26.4892 12.0097 26.994 12.5101 27.4944C13.0104 27.9948 13.5108 28.3031 14.105 28.5309C14.6768 28.7543 15.3336 28.9062 16.2897 28.9509C17.2502 28.9955 17.554 29.0045 20.0022 29.0045C22.4505 29.0045 22.7543 28.9955 23.7148 28.9509C24.6709 28.9062 25.3276 28.7543 25.8995 28.5309C26.4892 28.3031 26.994 27.9948 27.4944 27.4944C27.9948 26.994 28.3031 26.4937 28.5309 25.8995C28.7543 25.3276 28.9062 24.6709 28.9509 23.7148C28.9955 22.7543 29.0045 22.4505 29.0045 20.0022C29.0045 17.554 28.9955 17.2502 28.9509 16.2897C28.9062 15.3336 28.7543 14.6768 28.5309 14.105C28.3031 13.5153 27.9948 13.0104 27.4944 12.5101C26.994 12.0097 26.4937 11.7014 25.8995 11.4736C25.3276 11.2502 24.6709 11.0983 23.7148 11.0536C22.7543 11.0089 22.4505 11 20.0022 11Z" fill="white"/>
<path d="M20.0021 15.3783C17.4511 15.3783 15.3782 17.4468 15.3782 20.0022C15.3782 22.5577 17.4467 24.6262 20.0021 24.6262C22.5576 24.6262 24.6261 22.5577 24.6261 20.0022C24.6261 17.4468 22.5576 15.3783 20.0021 15.3783ZM20.0021 23C18.3447 23 16.9999 21.6552 16.9999 19.9978C16.9999 18.3403 18.3447 16.9955 20.0021 16.9955C21.6596 16.9955 23.0044 18.3403 23.0044 19.9978C23.0044 21.6552 21.6596 23 20.0021 23Z" fill="white"/>
<path d="M24.8048 16.2762C25.4019 16.2762 25.886 15.7922 25.886 15.1951C25.886 14.598 25.4019 14.1139 24.8048 14.1139C24.2077 14.1139 23.7236 14.598 23.7236 15.1951C23.7236 15.7922 24.2077 16.2762 24.8048 16.2762Z" fill="white"/>
</g>
<defs>
<clipPath id="clip0_134_1008">
<rect width="18" height="18" fill="white" transform="translate(11 11)"/>
</clipPath>
</defs>
</svg>
