<svg width="40" height="40" viewBox="0 0 40 40" fill="none" xmlns="http://www.w3.org/2000/svg">
<path d="M39 20C39 30.4934 30.4934 39 20 39C9.50659 39 1 30.4934 1 20C1 9.50659 9.50659 1 20 1C30.4934 1 39 9.50659 39 20Z" stroke="#1369A2" stroke-width="2" stroke-miterlimit="10"/>
<path d="M19.5504 13.0208C19.5504 13.0208 15.8094 15.2111 14.8402 16.2617C14.8324 16.2617 14.8286 16.2617 14.8208 16.2617H12.2738C11.6807 16.2617 11.2 16.7425 11.2 17.3356V22.007C11.2 22.6002 11.6807 23.0809 12.2738 23.0809H14.8208C14.8208 23.0809 14.8324 23.0809 14.8402 23.0809C15.8094 24.1276 19.5504 26.3218 19.5504 26.3218C20.539 26.9809 21.1941 26.0621 21.1941 25.3333V14.0132C21.1941 13.2844 20.5351 12.3695 19.5504 13.0247V13.0208Z" stroke="#1369A2" stroke-width="2" stroke-linejoin="round"/>
<path d="M24.5759 15.3313C24.5759 15.3313 25.9056 17.0681 25.9056 19.4562C25.9056 22.7165 24.5759 24.0113 24.5759 24.0113" stroke="#1369A2" stroke-linecap="round" stroke-linejoin="round"/>
<path d="M26.4949 13.3736C26.4949 13.3736 28.8597 15.8935 28.8597 19.3593C28.8597 24.085 26.4949 25.9691 26.4949 25.9691" stroke="#1369A2" stroke-linecap="round" stroke-linejoin="round"/>
<path d="M14.782 18.6731V20.6657" stroke="#1369A2" stroke-miterlimit="10" stroke-linecap="round"/>
</svg>
